<mxfile host="app.diagrams.net" agent="Mozilla/5.0 (Windows NT 10.0; Win64; x64) AppleWebKit/537.36 (KHTML, like Gecko) Chrome/136.0.0.0 Safari/537.36" version="27.1.0">
  <diagram name="第 1 页" id="jgTOyMrJopV3lDKcmbPH">
    <mxGraphModel dx="2593" dy="1493" grid="1" gridSize="10" guides="1" tooltips="1" connect="1" arrows="1" fold="1" page="1" pageScale="1" pageWidth="827" pageHeight="1169" math="0" shadow="0">
      <root>
        <mxCell id="0" />
        <mxCell id="1" parent="0" />
        <mxCell id="YskFfYirQ6dFapuEUr3h-68" value="&lt;span style=&quot;color: rgb(0, 0, 0); font-family: Helvetica; font-size: 12px; font-style: normal; font-variant-ligatures: normal; font-variant-caps: normal; font-weight: 400; letter-spacing: normal; orphans: 2; text-align: center; text-indent: 0px; text-transform: none; widows: 2; word-spacing: 0px; -webkit-text-stroke-width: 0px; white-space: normal; background-color: rgb(236, 236, 236); text-decoration-thickness: initial; text-decoration-style: initial; text-decoration-color: initial; float: none; display: inline !important;&quot;&gt;GLB 存放&lt;/span&gt;" style="rounded=0;whiteSpace=wrap;html=1;fillColor=#f8cecc;strokeColor=#b85450;" vertex="1" parent="1">
          <mxGeometry x="270" y="70" width="230" height="30" as="geometry" />
        </mxCell>
        <mxCell id="YskFfYirQ6dFapuEUr3h-70" value="" style="rounded=0;whiteSpace=wrap;html=1;" vertex="1" parent="1">
          <mxGeometry x="250" y="120" width="270" height="70" as="geometry" />
        </mxCell>
        <mxCell id="YskFfYirQ6dFapuEUr3h-71" value="狀況1" style="rounded=0;whiteSpace=wrap;html=1;fillColor=#fff2cc;strokeColor=#d6b656;" vertex="1" parent="1">
          <mxGeometry x="354" y="115" width="60" height="20" as="geometry" />
        </mxCell>
        <mxCell id="YskFfYirQ6dFapuEUr3h-73" value="1.channel 數大於 32??(待討論)&lt;div&gt;暫定 weight 暫不更換，更換ifmap&lt;/div&gt;" style="text;html=1;align=center;verticalAlign=middle;resizable=0;points=[];autosize=1;strokeColor=none;fillColor=none;" vertex="1" parent="1">
          <mxGeometry x="290" y="145" width="200" height="40" as="geometry" />
        </mxCell>
        <mxCell id="YskFfYirQ6dFapuEUr3h-74" value="" style="rounded=0;whiteSpace=wrap;html=1;" vertex="1" parent="1">
          <mxGeometry x="40" y="50" width="160" height="300" as="geometry" />
        </mxCell>
        <mxCell id="YskFfYirQ6dFapuEUr3h-75" value="" style="endArrow=none;html=1;rounded=0;entryX=0.997;entryY=0.387;entryDx=0;entryDy=0;exitX=0;exitY=0.387;exitDx=0;exitDy=0;exitPerimeter=0;entryPerimeter=0;" edge="1" parent="1">
          <mxGeometry width="50" height="50" relative="1" as="geometry">
            <mxPoint x="40" y="150.00000000000009" as="sourcePoint" />
            <mxPoint x="199.51999999999998" y="150.00000000000009" as="targetPoint" />
          </mxGeometry>
        </mxCell>
        <mxCell id="YskFfYirQ6dFapuEUr3h-76" value="" style="endArrow=none;html=1;rounded=0;entryX=0.997;entryY=0.387;entryDx=0;entryDy=0;exitX=0;exitY=0.387;exitDx=0;exitDy=0;exitPerimeter=0;entryPerimeter=0;" edge="1" parent="1">
          <mxGeometry width="50" height="50" relative="1" as="geometry">
            <mxPoint x="40" y="110" as="sourcePoint" />
            <mxPoint x="200" y="110" as="targetPoint" />
          </mxGeometry>
        </mxCell>
        <mxCell id="YskFfYirQ6dFapuEUr3h-77" value="" style="endArrow=none;html=1;rounded=0;entryX=0.997;entryY=0.387;entryDx=0;entryDy=0;exitX=0;exitY=0.387;exitDx=0;exitDy=0;exitPerimeter=0;entryPerimeter=0;" edge="1" parent="1">
          <mxGeometry width="50" height="50" relative="1" as="geometry">
            <mxPoint x="40" y="199.71" as="sourcePoint" />
            <mxPoint x="200" y="199.71" as="targetPoint" />
          </mxGeometry>
        </mxCell>
        <mxCell id="YskFfYirQ6dFapuEUr3h-78" value="" style="endArrow=none;html=1;rounded=0;entryX=0.997;entryY=0.387;entryDx=0;entryDy=0;exitX=0;exitY=0.387;exitDx=0;exitDy=0;exitPerimeter=0;entryPerimeter=0;" edge="1" parent="1">
          <mxGeometry width="50" height="50" relative="1" as="geometry">
            <mxPoint x="40" y="330" as="sourcePoint" />
            <mxPoint x="200" y="330" as="targetPoint" />
          </mxGeometry>
        </mxCell>
        <mxCell id="YskFfYirQ6dFapuEUr3h-79" value="ifmap" style="text;html=1;align=center;verticalAlign=middle;resizable=0;points=[];autosize=1;strokeColor=#6c8ebf;fillColor=#dae8fc;" vertex="1" parent="1">
          <mxGeometry x="95" y="60" width="50" height="30" as="geometry" />
        </mxCell>
        <mxCell id="YskFfYirQ6dFapuEUr3h-82" value="weight" style="text;html=1;align=center;verticalAlign=middle;resizable=0;points=[];autosize=1;strokeColor=#6c8ebf;fillColor=#dae8fc;" vertex="1" parent="1">
          <mxGeometry x="90" y="115" width="60" height="30" as="geometry" />
        </mxCell>
        <mxCell id="YskFfYirQ6dFapuEUr3h-83" value="bias" style="text;html=1;align=center;verticalAlign=middle;resizable=0;points=[];autosize=1;strokeColor=#6c8ebf;fillColor=#dae8fc;" vertex="1" parent="1">
          <mxGeometry x="95" y="160" width="50" height="30" as="geometry" />
        </mxCell>
        <mxCell id="YskFfYirQ6dFapuEUr3h-84" value="opsum" style="text;html=1;align=center;verticalAlign=middle;resizable=0;points=[];autosize=1;strokeColor=#6c8ebf;fillColor=#dae8fc;" vertex="1" parent="1">
          <mxGeometry x="90" y="250" width="60" height="30" as="geometry" />
        </mxCell>
        <mxCell id="YskFfYirQ6dFapuEUr3h-85" value="d" style="whiteSpace=wrap;html=1;" vertex="1" parent="1">
          <mxGeometry x="2643" y="252.25" width="40" height="40" as="geometry" />
        </mxCell>
        <mxCell id="YskFfYirQ6dFapuEUr3h-86" value="" style="whiteSpace=wrap;html=1;" vertex="1" parent="1">
          <mxGeometry x="2653" y="262.25" width="40" height="40" as="geometry" />
        </mxCell>
        <mxCell id="YskFfYirQ6dFapuEUr3h-87" value="" style="whiteSpace=wrap;html=1;" vertex="1" parent="1">
          <mxGeometry x="2663" y="272.25" width="40" height="40" as="geometry" />
        </mxCell>
        <mxCell id="YskFfYirQ6dFapuEUr3h-88" value="" style="whiteSpace=wrap;html=1;" vertex="1" parent="1">
          <mxGeometry x="2673" y="282.25" width="40" height="40" as="geometry" />
        </mxCell>
        <mxCell id="YskFfYirQ6dFapuEUr3h-89" value="" style="whiteSpace=wrap;html=1;" vertex="1" parent="1">
          <mxGeometry x="2683" y="292.25" width="40" height="40" as="geometry" />
        </mxCell>
        <mxCell id="YskFfYirQ6dFapuEUr3h-90" value="" style="whiteSpace=wrap;html=1;" vertex="1" parent="1">
          <mxGeometry x="2693" y="302.25" width="40" height="40" as="geometry" />
        </mxCell>
        <mxCell id="YskFfYirQ6dFapuEUr3h-91" value="" style="whiteSpace=wrap;html=1;" vertex="1" parent="1">
          <mxGeometry x="2303" y="422.25" width="120" height="120" as="geometry" />
        </mxCell>
        <mxCell id="YskFfYirQ6dFapuEUr3h-92" value="" style="whiteSpace=wrap;html=1;" vertex="1" parent="1">
          <mxGeometry x="2313" y="432.25" width="120" height="120" as="geometry" />
        </mxCell>
        <mxCell id="YskFfYirQ6dFapuEUr3h-93" value="" style="whiteSpace=wrap;html=1;" vertex="1" parent="1">
          <mxGeometry x="2323" y="442.25" width="120" height="120" as="geometry" />
        </mxCell>
        <mxCell id="YskFfYirQ6dFapuEUr3h-94" value="" style="whiteSpace=wrap;html=1;" vertex="1" parent="1">
          <mxGeometry x="2333" y="452.25" width="120" height="120" as="geometry" />
        </mxCell>
        <mxCell id="YskFfYirQ6dFapuEUr3h-95" value="" style="whiteSpace=wrap;html=1;" vertex="1" parent="1">
          <mxGeometry x="2343" y="462.25" width="120" height="120" as="geometry" />
        </mxCell>
        <mxCell id="YskFfYirQ6dFapuEUr3h-96" value="ifmap" style="whiteSpace=wrap;html=1;" vertex="1" parent="1">
          <mxGeometry x="2353" y="472.25" width="120" height="120" as="geometry" />
        </mxCell>
        <mxCell id="YskFfYirQ6dFapuEUr3h-97" value="" style="whiteSpace=wrap;html=1;fillColor=#f8cecc;strokeColor=#b85450;" vertex="1" parent="1">
          <mxGeometry x="2703" y="312.25" width="40" height="40" as="geometry" />
        </mxCell>
        <mxCell id="YskFfYirQ6dFapuEUr3h-98" value="" style="whiteSpace=wrap;html=1;fillColor=#f8cecc;strokeColor=#b85450;" vertex="1" parent="1">
          <mxGeometry x="2713" y="322.25" width="40" height="40" as="geometry" />
        </mxCell>
        <mxCell id="YskFfYirQ6dFapuEUr3h-99" value="" style="whiteSpace=wrap;html=1;fillColor=#f8cecc;strokeColor=#b85450;" vertex="1" parent="1">
          <mxGeometry x="2723" y="332.25" width="40" height="40" as="geometry" />
        </mxCell>
        <mxCell id="YskFfYirQ6dFapuEUr3h-100" value="" style="whiteSpace=wrap;html=1;fillColor=#f8cecc;strokeColor=#b85450;" vertex="1" parent="1">
          <mxGeometry x="2733" y="342.25" width="40" height="40" as="geometry" />
        </mxCell>
        <mxCell id="YskFfYirQ6dFapuEUr3h-101" value="" style="whiteSpace=wrap;html=1;fillColor=#f8cecc;strokeColor=#b85450;" vertex="1" parent="1">
          <mxGeometry x="2743" y="352.25" width="40" height="40" as="geometry" />
        </mxCell>
        <mxCell id="YskFfYirQ6dFapuEUr3h-102" value="" style="whiteSpace=wrap;html=1;fillColor=#f8cecc;strokeColor=#b85450;" vertex="1" parent="1">
          <mxGeometry x="2753" y="362.25" width="40" height="40" as="geometry" />
        </mxCell>
        <mxCell id="YskFfYirQ6dFapuEUr3h-103" value="" style="whiteSpace=wrap;html=1;" vertex="1" parent="1">
          <mxGeometry x="2643" y="392.25" width="40" height="40" as="geometry" />
        </mxCell>
        <mxCell id="YskFfYirQ6dFapuEUr3h-104" value="" style="whiteSpace=wrap;html=1;" vertex="1" parent="1">
          <mxGeometry x="2653" y="402.25" width="40" height="40" as="geometry" />
        </mxCell>
        <mxCell id="YskFfYirQ6dFapuEUr3h-105" value="" style="whiteSpace=wrap;html=1;" vertex="1" parent="1">
          <mxGeometry x="2663" y="412.25" width="40" height="40" as="geometry" />
        </mxCell>
        <mxCell id="YskFfYirQ6dFapuEUr3h-106" value="" style="whiteSpace=wrap;html=1;" vertex="1" parent="1">
          <mxGeometry x="2673" y="422.25" width="40" height="40" as="geometry" />
        </mxCell>
        <mxCell id="YskFfYirQ6dFapuEUr3h-107" value="" style="whiteSpace=wrap;html=1;" vertex="1" parent="1">
          <mxGeometry x="2683" y="432.25" width="40" height="40" as="geometry" />
        </mxCell>
        <mxCell id="YskFfYirQ6dFapuEUr3h-108" value="" style="whiteSpace=wrap;html=1;" vertex="1" parent="1">
          <mxGeometry x="2693" y="442.25" width="40" height="40" as="geometry" />
        </mxCell>
        <mxCell id="YskFfYirQ6dFapuEUr3h-109" value="" style="whiteSpace=wrap;html=1;" vertex="1" parent="1">
          <mxGeometry x="2643" y="712.25" width="40" height="40" as="geometry" />
        </mxCell>
        <mxCell id="YskFfYirQ6dFapuEUr3h-110" value="" style="whiteSpace=wrap;html=1;" vertex="1" parent="1">
          <mxGeometry x="2653" y="722.25" width="40" height="40" as="geometry" />
        </mxCell>
        <mxCell id="YskFfYirQ6dFapuEUr3h-111" value="" style="whiteSpace=wrap;html=1;" vertex="1" parent="1">
          <mxGeometry x="2663" y="732.25" width="40" height="40" as="geometry" />
        </mxCell>
        <mxCell id="YskFfYirQ6dFapuEUr3h-112" value="" style="whiteSpace=wrap;html=1;" vertex="1" parent="1">
          <mxGeometry x="2673" y="742.25" width="40" height="40" as="geometry" />
        </mxCell>
        <mxCell id="YskFfYirQ6dFapuEUr3h-113" value="" style="whiteSpace=wrap;html=1;" vertex="1" parent="1">
          <mxGeometry x="2683" y="752.25" width="40" height="40" as="geometry" />
        </mxCell>
        <mxCell id="YskFfYirQ6dFapuEUr3h-114" value="" style="whiteSpace=wrap;html=1;" vertex="1" parent="1">
          <mxGeometry x="2693" y="762.25" width="40" height="40" as="geometry" />
        </mxCell>
        <mxCell id="YskFfYirQ6dFapuEUr3h-115" value="ofmap" style="whiteSpace=wrap;html=1;" vertex="1" parent="1">
          <mxGeometry x="2943" y="262.25" width="120" height="120" as="geometry" />
        </mxCell>
        <mxCell id="YskFfYirQ6dFapuEUr3h-116" value="ofmap" style="whiteSpace=wrap;html=1;" vertex="1" parent="1">
          <mxGeometry x="2943" y="426.25" width="120" height="120" as="geometry" />
        </mxCell>
        <mxCell id="YskFfYirQ6dFapuEUr3h-117" value="ofmap" style="whiteSpace=wrap;html=1;" vertex="1" parent="1">
          <mxGeometry x="2943" y="782.25" width="120" height="120" as="geometry" />
        </mxCell>
        <mxCell id="YskFfYirQ6dFapuEUr3h-118" value="R" style="text;html=1;align=center;verticalAlign=middle;resizable=0;points=[];autosize=1;" vertex="1" parent="1">
          <mxGeometry x="2473" y="522.25" width="30" height="30" as="geometry" />
        </mxCell>
        <mxCell id="YskFfYirQ6dFapuEUr3h-119" value="C" style="text;html=1;align=center;verticalAlign=middle;resizable=0;points=[];autosize=1;" vertex="1" parent="1">
          <mxGeometry x="2398" y="592.25" width="30" height="30" as="geometry" />
        </mxCell>
        <mxCell id="YskFfYirQ6dFapuEUr3h-120" value="D 輸入通道數" style="text;html=1;align=center;verticalAlign=middle;resizable=0;points=[];autosize=1;strokeColor=none;fillColor=none;" vertex="1" parent="1">
          <mxGeometry x="2273" y="602.25" width="100" height="30" as="geometry" />
        </mxCell>
        <mxCell id="YskFfYirQ6dFapuEUr3h-121" value="H" style="text;html=1;align=center;verticalAlign=middle;resizable=0;points=[];autosize=1;" vertex="1" parent="1">
          <mxGeometry x="2786" y="369.25" width="30" height="30" as="geometry" />
        </mxCell>
        <mxCell id="YskFfYirQ6dFapuEUr3h-122" value="W" style="text;html=1;align=center;verticalAlign=middle;resizable=0;points=[];autosize=1;" vertex="1" parent="1">
          <mxGeometry x="2758" y="396.25" width="30" height="30" as="geometry" />
        </mxCell>
        <mxCell id="YskFfYirQ6dFapuEUr3h-123" value="K 輸出通道數" style="text;html=1;align=center;verticalAlign=middle;resizable=0;points=[];autosize=1;strokeColor=none;fillColor=none;" vertex="1" parent="1">
          <mxGeometry x="3100" y="541.25" width="90" height="30" as="geometry" />
        </mxCell>
        <mxCell id="YskFfYirQ6dFapuEUr3h-124" value="" style="endArrow=none;html=1;rounded=0;" edge="1" parent="1">
          <mxGeometry width="50" height="50" relative="1" as="geometry">
            <mxPoint x="3103" y="861.25" as="sourcePoint" />
            <mxPoint x="3103" y="301.25" as="targetPoint" />
          </mxGeometry>
        </mxCell>
        <mxCell id="YskFfYirQ6dFapuEUr3h-125" value="" style="whiteSpace=wrap;html=1;fillColor=#dae8fc;strokeColor=#6c8ebf;" vertex="1" parent="1">
          <mxGeometry x="2703" y="452.25" width="40" height="40" as="geometry" />
        </mxCell>
        <mxCell id="YskFfYirQ6dFapuEUr3h-126" value="" style="whiteSpace=wrap;html=1;fillColor=#dae8fc;strokeColor=#6c8ebf;" vertex="1" parent="1">
          <mxGeometry x="2713" y="462.25" width="40" height="40" as="geometry" />
        </mxCell>
        <mxCell id="YskFfYirQ6dFapuEUr3h-127" value="" style="whiteSpace=wrap;html=1;fillColor=#dae8fc;strokeColor=#6c8ebf;" vertex="1" parent="1">
          <mxGeometry x="2723" y="472.25" width="40" height="40" as="geometry" />
        </mxCell>
        <mxCell id="YskFfYirQ6dFapuEUr3h-128" value="" style="whiteSpace=wrap;html=1;fillColor=#dae8fc;strokeColor=#6c8ebf;" vertex="1" parent="1">
          <mxGeometry x="2733" y="482.25" width="40" height="40" as="geometry" />
        </mxCell>
        <mxCell id="YskFfYirQ6dFapuEUr3h-129" value="" style="whiteSpace=wrap;html=1;fillColor=#dae8fc;strokeColor=#6c8ebf;" vertex="1" parent="1">
          <mxGeometry x="2743" y="492.25" width="40" height="40" as="geometry" />
        </mxCell>
        <mxCell id="YskFfYirQ6dFapuEUr3h-130" value="" style="whiteSpace=wrap;html=1;fillColor=#dae8fc;strokeColor=#6c8ebf;" vertex="1" parent="1">
          <mxGeometry x="2753" y="502.25" width="40" height="40" as="geometry" />
        </mxCell>
        <mxCell id="YskFfYirQ6dFapuEUr3h-131" value="q=32" style="text;html=1;align=center;verticalAlign=middle;resizable=0;points=[];autosize=1;strokeColor=none;fillColor=none;" vertex="1" parent="1">
          <mxGeometry x="2766" y="312.25" width="50" height="30" as="geometry" />
        </mxCell>
        <mxCell id="YskFfYirQ6dFapuEUr3h-132" value="" style="whiteSpace=wrap;html=1;" vertex="1" parent="1">
          <mxGeometry x="2702" y="771.25" width="40" height="40" as="geometry" />
        </mxCell>
        <mxCell id="YskFfYirQ6dFapuEUr3h-133" value="" style="whiteSpace=wrap;html=1;" vertex="1" parent="1">
          <mxGeometry x="2712" y="781.25" width="40" height="40" as="geometry" />
        </mxCell>
        <mxCell id="YskFfYirQ6dFapuEUr3h-134" value="" style="whiteSpace=wrap;html=1;" vertex="1" parent="1">
          <mxGeometry x="2722" y="791.25" width="40" height="40" as="geometry" />
        </mxCell>
        <mxCell id="YskFfYirQ6dFapuEUr3h-135" value="" style="whiteSpace=wrap;html=1;" vertex="1" parent="1">
          <mxGeometry x="2732" y="801.25" width="40" height="40" as="geometry" />
        </mxCell>
        <mxCell id="YskFfYirQ6dFapuEUr3h-136" value="" style="whiteSpace=wrap;html=1;" vertex="1" parent="1">
          <mxGeometry x="2742" y="811.25" width="40" height="40" as="geometry" />
        </mxCell>
        <mxCell id="YskFfYirQ6dFapuEUr3h-137" value="" style="whiteSpace=wrap;html=1;" vertex="1" parent="1">
          <mxGeometry x="2752" y="821.25" width="40" height="40" as="geometry" />
        </mxCell>
        <mxCell id="YskFfYirQ6dFapuEUr3h-138" value="" style="whiteSpace=wrap;html=1;" vertex="1" parent="1">
          <mxGeometry x="2647.5" y="552.25" width="40" height="40" as="geometry" />
        </mxCell>
        <mxCell id="YskFfYirQ6dFapuEUr3h-139" value="" style="whiteSpace=wrap;html=1;" vertex="1" parent="1">
          <mxGeometry x="2657.5" y="562.25" width="40" height="40" as="geometry" />
        </mxCell>
        <mxCell id="YskFfYirQ6dFapuEUr3h-140" value="" style="whiteSpace=wrap;html=1;" vertex="1" parent="1">
          <mxGeometry x="2667.5" y="572.25" width="40" height="40" as="geometry" />
        </mxCell>
        <mxCell id="YskFfYirQ6dFapuEUr3h-141" value="" style="whiteSpace=wrap;html=1;" vertex="1" parent="1">
          <mxGeometry x="2677.5" y="582.25" width="40" height="40" as="geometry" />
        </mxCell>
        <mxCell id="YskFfYirQ6dFapuEUr3h-142" value="" style="whiteSpace=wrap;html=1;" vertex="1" parent="1">
          <mxGeometry x="2687.5" y="592.25" width="40" height="40" as="geometry" />
        </mxCell>
        <mxCell id="YskFfYirQ6dFapuEUr3h-143" value="" style="whiteSpace=wrap;html=1;" vertex="1" parent="1">
          <mxGeometry x="2697.5" y="602.25" width="40" height="40" as="geometry" />
        </mxCell>
        <mxCell id="YskFfYirQ6dFapuEUr3h-144" value="" style="whiteSpace=wrap;html=1;fillColor=#d5e8d4;strokeColor=#82b366;" vertex="1" parent="1">
          <mxGeometry x="2706.5" y="611.25" width="40" height="40" as="geometry" />
        </mxCell>
        <mxCell id="YskFfYirQ6dFapuEUr3h-145" value="" style="whiteSpace=wrap;html=1;fillColor=#d5e8d4;strokeColor=#82b366;" vertex="1" parent="1">
          <mxGeometry x="2716.5" y="621.25" width="40" height="40" as="geometry" />
        </mxCell>
        <mxCell id="YskFfYirQ6dFapuEUr3h-146" value="" style="whiteSpace=wrap;html=1;fillColor=#d5e8d4;strokeColor=#82b366;" vertex="1" parent="1">
          <mxGeometry x="2726.5" y="631.25" width="40" height="40" as="geometry" />
        </mxCell>
        <mxCell id="YskFfYirQ6dFapuEUr3h-147" value="" style="whiteSpace=wrap;html=1;fillColor=#d5e8d4;strokeColor=#82b366;" vertex="1" parent="1">
          <mxGeometry x="2736.5" y="641.25" width="40" height="40" as="geometry" />
        </mxCell>
        <mxCell id="YskFfYirQ6dFapuEUr3h-148" value="" style="whiteSpace=wrap;html=1;fillColor=#d5e8d4;strokeColor=#82b366;" vertex="1" parent="1">
          <mxGeometry x="2746.5" y="651.25" width="40" height="40" as="geometry" />
        </mxCell>
        <mxCell id="YskFfYirQ6dFapuEUr3h-149" value="" style="whiteSpace=wrap;html=1;fillColor=#d5e8d4;strokeColor=#82b366;" vertex="1" parent="1">
          <mxGeometry x="2756.5" y="661.25" width="40" height="40" as="geometry" />
        </mxCell>
        <mxCell id="YskFfYirQ6dFapuEUr3h-150" value="" style="endArrow=none;html=1;rounded=0;" edge="1" parent="1">
          <mxGeometry width="50" height="50" relative="1" as="geometry">
            <mxPoint x="2623" y="592.25" as="sourcePoint" />
            <mxPoint x="2623" y="252.25" as="targetPoint" />
          </mxGeometry>
        </mxCell>
        <mxCell id="YskFfYirQ6dFapuEUr3h-151" value="p=32" style="text;html=1;align=center;verticalAlign=middle;resizable=0;points=[];autosize=1;strokeColor=none;fillColor=none;" vertex="1" parent="1">
          <mxGeometry x="2573" y="399.25" width="50" height="30" as="geometry" />
        </mxCell>
        <mxCell id="YskFfYirQ6dFapuEUr3h-152" value="" style="whiteSpace=wrap;html=1;" vertex="1" parent="1">
          <mxGeometry x="2363" y="482.25" width="120" height="120" as="geometry" />
        </mxCell>
        <mxCell id="YskFfYirQ6dFapuEUr3h-153" value="" style="whiteSpace=wrap;html=1;" vertex="1" parent="1">
          <mxGeometry x="2363" y="482.25" width="120" height="120" as="geometry" />
        </mxCell>
        <mxCell id="YskFfYirQ6dFapuEUr3h-154" value="" style="whiteSpace=wrap;html=1;" vertex="1" parent="1">
          <mxGeometry x="2363" y="482.25" width="120" height="120" as="geometry" />
        </mxCell>
        <mxCell id="YskFfYirQ6dFapuEUr3h-155" value="" style="whiteSpace=wrap;html=1;" vertex="1" parent="1">
          <mxGeometry x="2363" y="482.25" width="120" height="120" as="geometry" />
        </mxCell>
        <mxCell id="YskFfYirQ6dFapuEUr3h-156" value="" style="whiteSpace=wrap;html=1;" vertex="1" parent="1">
          <mxGeometry x="2363" y="482.25" width="120" height="120" as="geometry" />
        </mxCell>
        <mxCell id="YskFfYirQ6dFapuEUr3h-157" value="" style="whiteSpace=wrap;html=1;" vertex="1" parent="1">
          <mxGeometry x="2373" y="492.25" width="120" height="120" as="geometry" />
        </mxCell>
        <mxCell id="YskFfYirQ6dFapuEUr3h-158" value="" style="whiteSpace=wrap;html=1;" vertex="1" parent="1">
          <mxGeometry x="2383" y="502.25" width="120" height="120" as="geometry" />
        </mxCell>
        <mxCell id="YskFfYirQ6dFapuEUr3h-159" value="" style="whiteSpace=wrap;html=1;" vertex="1" parent="1">
          <mxGeometry x="2393" y="512.25" width="120" height="120" as="geometry" />
        </mxCell>
        <mxCell id="YskFfYirQ6dFapuEUr3h-160" value="" style="whiteSpace=wrap;html=1;" vertex="1" parent="1">
          <mxGeometry x="2403" y="522.25" width="120" height="120" as="geometry" />
        </mxCell>
        <mxCell id="YskFfYirQ6dFapuEUr3h-161" value="ifmap" style="whiteSpace=wrap;html=1;" vertex="1" parent="1">
          <mxGeometry x="2413" y="532.25" width="120" height="119" as="geometry" />
        </mxCell>
        <mxCell id="YskFfYirQ6dFapuEUr3h-162" value="R" style="text;html=1;align=center;verticalAlign=middle;resizable=0;points=[];autosize=1;strokeColor=none;fillColor=none;" vertex="1" parent="1">
          <mxGeometry x="2528" y="597.25" width="30" height="30" as="geometry" />
        </mxCell>
        <mxCell id="YskFfYirQ6dFapuEUr3h-163" value="C" style="text;html=1;align=center;verticalAlign=middle;resizable=0;points=[];autosize=1;" vertex="1" parent="1">
          <mxGeometry x="2458" y="642.25" width="30" height="30" as="geometry" />
        </mxCell>
        <mxCell id="YskFfYirQ6dFapuEUr3h-164" value="tile_D=32" style="text;html=1;align=center;verticalAlign=middle;resizable=0;points=[];autosize=1;" vertex="1" parent="1">
          <mxGeometry x="2498" y="487.25" width="70" height="30" as="geometry" />
        </mxCell>
        <mxCell id="YskFfYirQ6dFapuEUr3h-165" value="ofmap" style="whiteSpace=wrap;html=1;" vertex="1" parent="1">
          <mxGeometry x="2943" y="581.25" width="120" height="120" as="geometry" />
        </mxCell>
        <mxCell id="YskFfYirQ6dFapuEUr3h-166" value="" style="endArrow=none;html=1;rounded=0;" edge="1" parent="1">
          <mxGeometry width="50" height="50" relative="1" as="geometry">
            <mxPoint x="2923" y="642.25" as="sourcePoint" />
            <mxPoint x="2923" y="302.25" as="targetPoint" />
          </mxGeometry>
        </mxCell>
        <mxCell id="YskFfYirQ6dFapuEUr3h-167" value="p=32" style="text;html=1;align=center;verticalAlign=middle;resizable=0;points=[];autosize=1;strokeColor=none;fillColor=none;" vertex="1" parent="1">
          <mxGeometry x="2873" y="449.25" width="50" height="30" as="geometry" />
        </mxCell>
        <mxCell id="YskFfYirQ6dFapuEUr3h-168" value="" style="whiteSpace=wrap;html=1;fillColor=#fff2cc;strokeColor=#d6b656;" vertex="1" parent="1">
          <mxGeometry x="2363" y="482.25" width="120" height="49" as="geometry" />
        </mxCell>
        <mxCell id="YskFfYirQ6dFapuEUr3h-169" value="" style="whiteSpace=wrap;html=1;fillColor=#fff2cc;strokeColor=#d6b656;" vertex="1" parent="1">
          <mxGeometry x="2373" y="492.25" width="120" height="49" as="geometry" />
        </mxCell>
        <mxCell id="YskFfYirQ6dFapuEUr3h-170" value="" style="whiteSpace=wrap;html=1;fillColor=#fff2cc;strokeColor=#d6b656;" vertex="1" parent="1">
          <mxGeometry x="2383" y="501.25" width="120" height="49" as="geometry" />
        </mxCell>
        <mxCell id="YskFfYirQ6dFapuEUr3h-171" value="" style="whiteSpace=wrap;html=1;fillColor=#fff2cc;strokeColor=#d6b656;" vertex="1" parent="1">
          <mxGeometry x="2393" y="512.25" width="120" height="49" as="geometry" />
        </mxCell>
        <mxCell id="YskFfYirQ6dFapuEUr3h-172" value="" style="whiteSpace=wrap;html=1;fillColor=#fff2cc;strokeColor=#d6b656;" vertex="1" parent="1">
          <mxGeometry x="2403" y="522.25" width="120" height="49" as="geometry" />
        </mxCell>
        <mxCell id="YskFfYirQ6dFapuEUr3h-173" value="" style="whiteSpace=wrap;html=1;fillColor=#fff2cc;strokeColor=#d6b656;" vertex="1" parent="1">
          <mxGeometry x="2413" y="532.25" width="120" height="49" as="geometry" />
        </mxCell>
        <mxCell id="YskFfYirQ6dFapuEUr3h-174" value="" style="whiteSpace=wrap;html=1;fillColor=#fff2cc;strokeColor=#d6b656;" vertex="1" parent="1">
          <mxGeometry x="2943" y="580.25" width="120" height="51" as="geometry" />
        </mxCell>
        <mxCell id="YskFfYirQ6dFapuEUr3h-175" value="" style="whiteSpace=wrap;html=1;fillColor=#fff2cc;strokeColor=#d6b656;" vertex="1" parent="1">
          <mxGeometry x="2910" y="1480.25" width="120" height="51" as="geometry" />
        </mxCell>
        <mxCell id="YskFfYirQ6dFapuEUr3h-176" value="" style="whiteSpace=wrap;html=1;fillColor=#fff2cc;strokeColor=#d6b656;" vertex="1" parent="1">
          <mxGeometry x="2943" y="425.25" width="120" height="46" as="geometry" />
        </mxCell>
        <mxCell id="YskFfYirQ6dFapuEUr3h-177" value="" style="whiteSpace=wrap;html=1;fillColor=#fff2cc;strokeColor=#d6b656;" vertex="1" parent="1">
          <mxGeometry x="2943" y="259.25" width="120" height="42" as="geometry" />
        </mxCell>
        <mxCell id="YskFfYirQ6dFapuEUr3h-178" value="d" style="whiteSpace=wrap;html=1;fillColor=#f8cecc;strokeColor=#b85450;" vertex="1" parent="1">
          <mxGeometry x="2610" y="1152.25" width="40" height="40" as="geometry" />
        </mxCell>
        <mxCell id="YskFfYirQ6dFapuEUr3h-179" value="" style="whiteSpace=wrap;html=1;fillColor=#f8cecc;strokeColor=#b85450;" vertex="1" parent="1">
          <mxGeometry x="2620" y="1162.25" width="40" height="40" as="geometry" />
        </mxCell>
        <mxCell id="YskFfYirQ6dFapuEUr3h-180" value="" style="whiteSpace=wrap;html=1;fillColor=#f8cecc;strokeColor=#b85450;" vertex="1" parent="1">
          <mxGeometry x="2630" y="1172.25" width="40" height="40" as="geometry" />
        </mxCell>
        <mxCell id="YskFfYirQ6dFapuEUr3h-181" value="" style="whiteSpace=wrap;html=1;fillColor=#f8cecc;strokeColor=#b85450;" vertex="1" parent="1">
          <mxGeometry x="2640" y="1182.25" width="40" height="40" as="geometry" />
        </mxCell>
        <mxCell id="YskFfYirQ6dFapuEUr3h-182" value="" style="whiteSpace=wrap;html=1;fillColor=#f8cecc;strokeColor=#b85450;" vertex="1" parent="1">
          <mxGeometry x="2650" y="1192.25" width="40" height="40" as="geometry" />
        </mxCell>
        <mxCell id="YskFfYirQ6dFapuEUr3h-183" value="" style="whiteSpace=wrap;html=1;" vertex="1" parent="1">
          <mxGeometry x="2660" y="1202.25" width="40" height="40" as="geometry" />
        </mxCell>
        <mxCell id="YskFfYirQ6dFapuEUr3h-184" value="" style="whiteSpace=wrap;html=1;" vertex="1" parent="1">
          <mxGeometry x="2270" y="1322.25" width="120" height="120" as="geometry" />
        </mxCell>
        <mxCell id="YskFfYirQ6dFapuEUr3h-185" value="" style="whiteSpace=wrap;html=1;" vertex="1" parent="1">
          <mxGeometry x="2280" y="1332.25" width="120" height="120" as="geometry" />
        </mxCell>
        <mxCell id="YskFfYirQ6dFapuEUr3h-186" value="" style="whiteSpace=wrap;html=1;" vertex="1" parent="1">
          <mxGeometry x="2290" y="1342.25" width="120" height="120" as="geometry" />
        </mxCell>
        <mxCell id="YskFfYirQ6dFapuEUr3h-187" value="" style="whiteSpace=wrap;html=1;" vertex="1" parent="1">
          <mxGeometry x="2300" y="1352.25" width="120" height="120" as="geometry" />
        </mxCell>
        <mxCell id="YskFfYirQ6dFapuEUr3h-188" value="" style="whiteSpace=wrap;html=1;" vertex="1" parent="1">
          <mxGeometry x="2310" y="1362.25" width="120" height="120" as="geometry" />
        </mxCell>
        <mxCell id="YskFfYirQ6dFapuEUr3h-189" value="ifmap" style="whiteSpace=wrap;html=1;" vertex="1" parent="1">
          <mxGeometry x="2320" y="1372.25" width="120" height="120" as="geometry" />
        </mxCell>
        <mxCell id="YskFfYirQ6dFapuEUr3h-190" value="" style="whiteSpace=wrap;html=1;" vertex="1" parent="1">
          <mxGeometry x="2670" y="1212.25" width="40" height="40" as="geometry" />
        </mxCell>
        <mxCell id="YskFfYirQ6dFapuEUr3h-191" value="" style="whiteSpace=wrap;html=1;" vertex="1" parent="1">
          <mxGeometry x="2680" y="1222.25" width="40" height="40" as="geometry" />
        </mxCell>
        <mxCell id="YskFfYirQ6dFapuEUr3h-192" value="" style="whiteSpace=wrap;html=1;" vertex="1" parent="1">
          <mxGeometry x="2690" y="1232.25" width="40" height="40" as="geometry" />
        </mxCell>
        <mxCell id="YskFfYirQ6dFapuEUr3h-193" value="" style="whiteSpace=wrap;html=1;" vertex="1" parent="1">
          <mxGeometry x="2700" y="1242.25" width="40" height="40" as="geometry" />
        </mxCell>
        <mxCell id="YskFfYirQ6dFapuEUr3h-194" value="" style="whiteSpace=wrap;html=1;" vertex="1" parent="1">
          <mxGeometry x="2710" y="1252.25" width="40" height="40" as="geometry" />
        </mxCell>
        <mxCell id="YskFfYirQ6dFapuEUr3h-195" value="" style="whiteSpace=wrap;html=1;" vertex="1" parent="1">
          <mxGeometry x="2720" y="1262.25" width="40" height="40" as="geometry" />
        </mxCell>
        <mxCell id="YskFfYirQ6dFapuEUr3h-196" value="" style="whiteSpace=wrap;html=1;fillColor=#dae8fc;strokeColor=#6c8ebf;" vertex="1" parent="1">
          <mxGeometry x="2610" y="1292.25" width="40" height="40" as="geometry" />
        </mxCell>
        <mxCell id="YskFfYirQ6dFapuEUr3h-197" value="" style="whiteSpace=wrap;html=1;fillColor=#dae8fc;strokeColor=#6c8ebf;" vertex="1" parent="1">
          <mxGeometry x="2620" y="1302.25" width="40" height="40" as="geometry" />
        </mxCell>
        <mxCell id="YskFfYirQ6dFapuEUr3h-198" value="" style="whiteSpace=wrap;html=1;fillColor=#dae8fc;strokeColor=#6c8ebf;" vertex="1" parent="1">
          <mxGeometry x="2630" y="1312.25" width="40" height="40" as="geometry" />
        </mxCell>
        <mxCell id="YskFfYirQ6dFapuEUr3h-199" value="" style="whiteSpace=wrap;html=1;fillColor=#dae8fc;strokeColor=#6c8ebf;" vertex="1" parent="1">
          <mxGeometry x="2640" y="1322.25" width="40" height="40" as="geometry" />
        </mxCell>
        <mxCell id="YskFfYirQ6dFapuEUr3h-200" value="" style="whiteSpace=wrap;html=1;fillColor=#dae8fc;strokeColor=#6c8ebf;" vertex="1" parent="1">
          <mxGeometry x="2650" y="1332.25" width="40" height="40" as="geometry" />
        </mxCell>
        <mxCell id="YskFfYirQ6dFapuEUr3h-201" value="" style="whiteSpace=wrap;html=1;" vertex="1" parent="1">
          <mxGeometry x="2660" y="1342.25" width="40" height="40" as="geometry" />
        </mxCell>
        <mxCell id="YskFfYirQ6dFapuEUr3h-202" value="" style="whiteSpace=wrap;html=1;" vertex="1" parent="1">
          <mxGeometry x="2610" y="1612.25" width="40" height="40" as="geometry" />
        </mxCell>
        <mxCell id="YskFfYirQ6dFapuEUr3h-203" value="" style="whiteSpace=wrap;html=1;" vertex="1" parent="1">
          <mxGeometry x="2620" y="1622.25" width="40" height="40" as="geometry" />
        </mxCell>
        <mxCell id="YskFfYirQ6dFapuEUr3h-204" value="" style="whiteSpace=wrap;html=1;" vertex="1" parent="1">
          <mxGeometry x="2630" y="1632.25" width="40" height="40" as="geometry" />
        </mxCell>
        <mxCell id="YskFfYirQ6dFapuEUr3h-205" value="" style="whiteSpace=wrap;html=1;" vertex="1" parent="1">
          <mxGeometry x="2640" y="1642.25" width="40" height="40" as="geometry" />
        </mxCell>
        <mxCell id="YskFfYirQ6dFapuEUr3h-206" value="" style="whiteSpace=wrap;html=1;" vertex="1" parent="1">
          <mxGeometry x="2650" y="1652.25" width="40" height="40" as="geometry" />
        </mxCell>
        <mxCell id="YskFfYirQ6dFapuEUr3h-207" value="" style="whiteSpace=wrap;html=1;" vertex="1" parent="1">
          <mxGeometry x="2660" y="1662.25" width="40" height="40" as="geometry" />
        </mxCell>
        <mxCell id="YskFfYirQ6dFapuEUr3h-208" value="ofmap" style="whiteSpace=wrap;html=1;" vertex="1" parent="1">
          <mxGeometry x="2910" y="1162.25" width="120" height="120" as="geometry" />
        </mxCell>
        <mxCell id="YskFfYirQ6dFapuEUr3h-209" value="ofmap" style="whiteSpace=wrap;html=1;" vertex="1" parent="1">
          <mxGeometry x="2910" y="1326.25" width="120" height="120" as="geometry" />
        </mxCell>
        <mxCell id="YskFfYirQ6dFapuEUr3h-210" value="ofmap" style="whiteSpace=wrap;html=1;" vertex="1" parent="1">
          <mxGeometry x="2910" y="1682.25" width="120" height="120" as="geometry" />
        </mxCell>
        <mxCell id="YskFfYirQ6dFapuEUr3h-211" value="R" style="text;html=1;align=center;verticalAlign=middle;resizable=0;points=[];autosize=1;" vertex="1" parent="1">
          <mxGeometry x="2440" y="1422.25" width="30" height="30" as="geometry" />
        </mxCell>
        <mxCell id="YskFfYirQ6dFapuEUr3h-212" value="C" style="text;html=1;align=center;verticalAlign=middle;resizable=0;points=[];autosize=1;" vertex="1" parent="1">
          <mxGeometry x="2365" y="1492.25" width="30" height="30" as="geometry" />
        </mxCell>
        <mxCell id="YskFfYirQ6dFapuEUr3h-213" value="D 輸入通道數" style="text;html=1;align=center;verticalAlign=middle;resizable=0;points=[];autosize=1;strokeColor=none;fillColor=none;" vertex="1" parent="1">
          <mxGeometry x="2240" y="1502.25" width="100" height="30" as="geometry" />
        </mxCell>
        <mxCell id="YskFfYirQ6dFapuEUr3h-214" value="H" style="text;html=1;align=center;verticalAlign=middle;resizable=0;points=[];autosize=1;" vertex="1" parent="1">
          <mxGeometry x="2753" y="1269.25" width="30" height="30" as="geometry" />
        </mxCell>
        <mxCell id="YskFfYirQ6dFapuEUr3h-215" value="W" style="text;html=1;align=center;verticalAlign=middle;resizable=0;points=[];autosize=1;" vertex="1" parent="1">
          <mxGeometry x="2725" y="1296.25" width="30" height="30" as="geometry" />
        </mxCell>
        <mxCell id="YskFfYirQ6dFapuEUr3h-216" value="K 輸出通道數 = 320" style="text;html=1;align=center;verticalAlign=middle;resizable=0;points=[];autosize=1;strokeColor=none;fillColor=none;" vertex="1" parent="1">
          <mxGeometry x="3060" y="1442.25" width="130" height="30" as="geometry" />
        </mxCell>
        <mxCell id="YskFfYirQ6dFapuEUr3h-217" value="" style="endArrow=none;html=1;rounded=0;" edge="1" parent="1">
          <mxGeometry width="50" height="50" relative="1" as="geometry">
            <mxPoint x="3070" y="1761.25" as="sourcePoint" />
            <mxPoint x="3070" y="1201.25" as="targetPoint" />
          </mxGeometry>
        </mxCell>
        <mxCell id="YskFfYirQ6dFapuEUr3h-218" value="" style="whiteSpace=wrap;html=1;" vertex="1" parent="1">
          <mxGeometry x="2670" y="1352.25" width="40" height="40" as="geometry" />
        </mxCell>
        <mxCell id="YskFfYirQ6dFapuEUr3h-219" value="" style="whiteSpace=wrap;html=1;" vertex="1" parent="1">
          <mxGeometry x="2680" y="1362.25" width="40" height="40" as="geometry" />
        </mxCell>
        <mxCell id="YskFfYirQ6dFapuEUr3h-220" value="" style="whiteSpace=wrap;html=1;" vertex="1" parent="1">
          <mxGeometry x="2690" y="1372.25" width="40" height="40" as="geometry" />
        </mxCell>
        <mxCell id="YskFfYirQ6dFapuEUr3h-221" value="" style="whiteSpace=wrap;html=1;" vertex="1" parent="1">
          <mxGeometry x="2700" y="1382.25" width="40" height="40" as="geometry" />
        </mxCell>
        <mxCell id="YskFfYirQ6dFapuEUr3h-222" value="" style="whiteSpace=wrap;html=1;" vertex="1" parent="1">
          <mxGeometry x="2710" y="1392.25" width="40" height="40" as="geometry" />
        </mxCell>
        <mxCell id="YskFfYirQ6dFapuEUr3h-223" value="" style="whiteSpace=wrap;html=1;" vertex="1" parent="1">
          <mxGeometry x="2720" y="1402.25" width="40" height="40" as="geometry" />
        </mxCell>
        <mxCell id="YskFfYirQ6dFapuEUr3h-224" value="q: 一次 processing pass 計算的輸入通道數&lt;div&gt;p: 一次 processing pass 計算的輸出通道數&lt;/div&gt;" style="text;html=1;align=center;verticalAlign=middle;resizable=0;points=[];autosize=1;" vertex="1" parent="1">
          <mxGeometry x="2443" y="1062.25" width="250" height="40" as="geometry" />
        </mxCell>
        <mxCell id="YskFfYirQ6dFapuEUr3h-225" value="q=32" style="text;html=1;align=center;verticalAlign=middle;resizable=0;points=[];autosize=1;" vertex="1" parent="1">
          <mxGeometry x="2733" y="1212.25" width="50" height="30" as="geometry" />
        </mxCell>
        <mxCell id="YskFfYirQ6dFapuEUr3h-226" value="" style="whiteSpace=wrap;html=1;" vertex="1" parent="1">
          <mxGeometry x="2669" y="1671.25" width="40" height="40" as="geometry" />
        </mxCell>
        <mxCell id="YskFfYirQ6dFapuEUr3h-227" value="" style="whiteSpace=wrap;html=1;" vertex="1" parent="1">
          <mxGeometry x="2679" y="1681.25" width="40" height="40" as="geometry" />
        </mxCell>
        <mxCell id="YskFfYirQ6dFapuEUr3h-228" value="" style="whiteSpace=wrap;html=1;" vertex="1" parent="1">
          <mxGeometry x="2689" y="1691.25" width="40" height="40" as="geometry" />
        </mxCell>
        <mxCell id="YskFfYirQ6dFapuEUr3h-229" value="" style="whiteSpace=wrap;html=1;" vertex="1" parent="1">
          <mxGeometry x="2699" y="1701.25" width="40" height="40" as="geometry" />
        </mxCell>
        <mxCell id="YskFfYirQ6dFapuEUr3h-230" value="" style="whiteSpace=wrap;html=1;" vertex="1" parent="1">
          <mxGeometry x="2709" y="1711.25" width="40" height="40" as="geometry" />
        </mxCell>
        <mxCell id="YskFfYirQ6dFapuEUr3h-231" value="" style="whiteSpace=wrap;html=1;" vertex="1" parent="1">
          <mxGeometry x="2719" y="1721.25" width="40" height="40" as="geometry" />
        </mxCell>
        <mxCell id="YskFfYirQ6dFapuEUr3h-232" value="" style="whiteSpace=wrap;html=1;fillColor=#d5e8d4;strokeColor=#82b366;" vertex="1" parent="1">
          <mxGeometry x="2614.5" y="1452.25" width="40" height="40" as="geometry" />
        </mxCell>
        <mxCell id="YskFfYirQ6dFapuEUr3h-233" value="" style="whiteSpace=wrap;html=1;fillColor=#d5e8d4;strokeColor=#82b366;" vertex="1" parent="1">
          <mxGeometry x="2624.5" y="1462.25" width="40" height="40" as="geometry" />
        </mxCell>
        <mxCell id="YskFfYirQ6dFapuEUr3h-234" value="" style="whiteSpace=wrap;html=1;fillColor=#d5e8d4;strokeColor=#82b366;" vertex="1" parent="1">
          <mxGeometry x="2634.5" y="1472.25" width="40" height="40" as="geometry" />
        </mxCell>
        <mxCell id="YskFfYirQ6dFapuEUr3h-235" value="" style="whiteSpace=wrap;html=1;fillColor=#d5e8d4;strokeColor=#82b366;" vertex="1" parent="1">
          <mxGeometry x="2644.5" y="1482.25" width="40" height="40" as="geometry" />
        </mxCell>
        <mxCell id="YskFfYirQ6dFapuEUr3h-236" value="" style="whiteSpace=wrap;html=1;fillColor=#d5e8d4;strokeColor=#82b366;" vertex="1" parent="1">
          <mxGeometry x="2654.5" y="1492.25" width="40" height="40" as="geometry" />
        </mxCell>
        <mxCell id="YskFfYirQ6dFapuEUr3h-237" value="" style="whiteSpace=wrap;html=1;" vertex="1" parent="1">
          <mxGeometry x="2664.5" y="1502.25" width="40" height="40" as="geometry" />
        </mxCell>
        <mxCell id="YskFfYirQ6dFapuEUr3h-238" value="" style="whiteSpace=wrap;html=1;" vertex="1" parent="1">
          <mxGeometry x="2673.5" y="1511.25" width="40" height="40" as="geometry" />
        </mxCell>
        <mxCell id="YskFfYirQ6dFapuEUr3h-239" value="" style="whiteSpace=wrap;html=1;" vertex="1" parent="1">
          <mxGeometry x="2683.5" y="1521.25" width="40" height="40" as="geometry" />
        </mxCell>
        <mxCell id="YskFfYirQ6dFapuEUr3h-240" value="" style="whiteSpace=wrap;html=1;" vertex="1" parent="1">
          <mxGeometry x="2693.5" y="1531.25" width="40" height="40" as="geometry" />
        </mxCell>
        <mxCell id="YskFfYirQ6dFapuEUr3h-241" value="" style="whiteSpace=wrap;html=1;" vertex="1" parent="1">
          <mxGeometry x="2703.5" y="1541.25" width="40" height="40" as="geometry" />
        </mxCell>
        <mxCell id="YskFfYirQ6dFapuEUr3h-242" value="" style="whiteSpace=wrap;html=1;" vertex="1" parent="1">
          <mxGeometry x="2713.5" y="1551.25" width="40" height="40" as="geometry" />
        </mxCell>
        <mxCell id="YskFfYirQ6dFapuEUr3h-243" value="" style="whiteSpace=wrap;html=1;" vertex="1" parent="1">
          <mxGeometry x="2723.5" y="1561.25" width="40" height="40" as="geometry" />
        </mxCell>
        <mxCell id="YskFfYirQ6dFapuEUr3h-244" value="" style="endArrow=none;html=1;rounded=0;" edge="1" parent="1">
          <mxGeometry width="50" height="50" relative="1" as="geometry">
            <mxPoint x="2590" y="1492.25" as="sourcePoint" />
            <mxPoint x="2590" y="1152.25" as="targetPoint" />
          </mxGeometry>
        </mxCell>
        <mxCell id="YskFfYirQ6dFapuEUr3h-245" value="p=32" style="text;html=1;align=center;verticalAlign=middle;resizable=0;points=[];autosize=1;strokeColor=none;fillColor=none;" vertex="1" parent="1">
          <mxGeometry x="2540" y="1299.25" width="50" height="30" as="geometry" />
        </mxCell>
        <mxCell id="YskFfYirQ6dFapuEUr3h-246" value="" style="whiteSpace=wrap;html=1;" vertex="1" parent="1">
          <mxGeometry x="2330" y="1382.25" width="120" height="120" as="geometry" />
        </mxCell>
        <mxCell id="YskFfYirQ6dFapuEUr3h-247" value="" style="whiteSpace=wrap;html=1;" vertex="1" parent="1">
          <mxGeometry x="2330" y="1382.25" width="120" height="120" as="geometry" />
        </mxCell>
        <mxCell id="YskFfYirQ6dFapuEUr3h-248" value="" style="whiteSpace=wrap;html=1;" vertex="1" parent="1">
          <mxGeometry x="2330" y="1382.25" width="120" height="120" as="geometry" />
        </mxCell>
        <mxCell id="YskFfYirQ6dFapuEUr3h-249" value="" style="whiteSpace=wrap;html=1;" vertex="1" parent="1">
          <mxGeometry x="2330" y="1382.25" width="120" height="120" as="geometry" />
        </mxCell>
        <mxCell id="YskFfYirQ6dFapuEUr3h-250" value="R" style="text;html=1;align=center;verticalAlign=middle;resizable=0;points=[];autosize=1;strokeColor=none;fillColor=none;" vertex="1" parent="1">
          <mxGeometry x="2500" y="1477.25" width="30" height="30" as="geometry" />
        </mxCell>
        <mxCell id="YskFfYirQ6dFapuEUr3h-251" value="C" style="text;html=1;align=center;verticalAlign=middle;resizable=0;points=[];autosize=1;" vertex="1" parent="1">
          <mxGeometry x="2414.4700000000003" y="1546.25" width="30" height="30" as="geometry" />
        </mxCell>
        <mxCell id="YskFfYirQ6dFapuEUr3h-252" value="ofmap" style="whiteSpace=wrap;html=1;" vertex="1" parent="1">
          <mxGeometry x="2910" y="1481.25" width="120" height="120" as="geometry" />
        </mxCell>
        <mxCell id="YskFfYirQ6dFapuEUr3h-253" value="" style="endArrow=none;html=1;rounded=0;" edge="1" parent="1">
          <mxGeometry width="50" height="50" relative="1" as="geometry">
            <mxPoint x="2890" y="1542.25" as="sourcePoint" />
            <mxPoint x="2890" y="1202.25" as="targetPoint" />
          </mxGeometry>
        </mxCell>
        <mxCell id="YskFfYirQ6dFapuEUr3h-254" value="p=32" style="text;html=1;align=center;verticalAlign=middle;resizable=0;points=[];autosize=1;strokeColor=none;fillColor=none;" vertex="1" parent="1">
          <mxGeometry x="2840" y="1349.25" width="50" height="30" as="geometry" />
        </mxCell>
        <mxCell id="YskFfYirQ6dFapuEUr3h-255" value="" style="whiteSpace=wrap;html=1;fillColor=#fff2cc;strokeColor=#d6b656;" vertex="1" parent="1">
          <mxGeometry x="2270" y="1323.25" width="120" height="49" as="geometry" />
        </mxCell>
        <mxCell id="YskFfYirQ6dFapuEUr3h-256" value="" style="whiteSpace=wrap;html=1;fillColor=#fff2cc;strokeColor=#d6b656;" vertex="1" parent="1">
          <mxGeometry x="2280" y="1333.25" width="120" height="49" as="geometry" />
        </mxCell>
        <mxCell id="YskFfYirQ6dFapuEUr3h-257" value="" style="whiteSpace=wrap;html=1;fillColor=#fff2cc;strokeColor=#d6b656;" vertex="1" parent="1">
          <mxGeometry x="2290" y="1343.25" width="120" height="49" as="geometry" />
        </mxCell>
        <mxCell id="YskFfYirQ6dFapuEUr3h-258" value="" style="whiteSpace=wrap;html=1;fillColor=#fff2cc;strokeColor=#d6b656;" vertex="1" parent="1">
          <mxGeometry x="2300" y="1353.25" width="120" height="49" as="geometry" />
        </mxCell>
        <mxCell id="YskFfYirQ6dFapuEUr3h-259" value="" style="whiteSpace=wrap;html=1;fillColor=#fff2cc;strokeColor=#d6b656;" vertex="1" parent="1">
          <mxGeometry x="2310" y="1363.25" width="120" height="49" as="geometry" />
        </mxCell>
        <mxCell id="YskFfYirQ6dFapuEUr3h-260" value="" style="whiteSpace=wrap;html=1;fillColor=#fff2cc;strokeColor=#d6b656;" vertex="1" parent="1">
          <mxGeometry x="2320" y="1373.25" width="120" height="49" as="geometry" />
        </mxCell>
        <mxCell id="YskFfYirQ6dFapuEUr3h-261" value="" style="whiteSpace=wrap;html=1;fillColor=#fff2cc;strokeColor=#d6b656;" vertex="1" parent="1">
          <mxGeometry x="2910" y="1325.25" width="120" height="46" as="geometry" />
        </mxCell>
        <mxCell id="YskFfYirQ6dFapuEUr3h-262" value="" style="whiteSpace=wrap;html=1;fillColor=#fff2cc;strokeColor=#d6b656;" vertex="1" parent="1">
          <mxGeometry x="2910" y="1159.25" width="120" height="42" as="geometry" />
        </mxCell>
        <mxCell id="YskFfYirQ6dFapuEUr3h-263" value="" style="whiteSpace=wrap;html=1;" vertex="1" parent="1">
          <mxGeometry x="2330" y="1382.25" width="120" height="120" as="geometry" />
        </mxCell>
        <mxCell id="YskFfYirQ6dFapuEUr3h-264" value="" style="whiteSpace=wrap;html=1;" vertex="1" parent="1">
          <mxGeometry x="2340" y="1392.25" width="120" height="120" as="geometry" />
        </mxCell>
        <mxCell id="YskFfYirQ6dFapuEUr3h-265" value="" style="whiteSpace=wrap;html=1;" vertex="1" parent="1">
          <mxGeometry x="2350" y="1402.25" width="120" height="120" as="geometry" />
        </mxCell>
        <mxCell id="YskFfYirQ6dFapuEUr3h-266" value="" style="whiteSpace=wrap;html=1;" vertex="1" parent="1">
          <mxGeometry x="2360" y="1412.25" width="120" height="120" as="geometry" />
        </mxCell>
        <mxCell id="YskFfYirQ6dFapuEUr3h-267" value="" style="whiteSpace=wrap;html=1;" vertex="1" parent="1">
          <mxGeometry x="2370" y="1422.25" width="120" height="120" as="geometry" />
        </mxCell>
        <mxCell id="YskFfYirQ6dFapuEUr3h-268" value="ifmap" style="whiteSpace=wrap;html=1;" vertex="1" parent="1">
          <mxGeometry x="2380" y="1432.25" width="120" height="119" as="geometry" />
        </mxCell>
        <mxCell id="YskFfYirQ6dFapuEUr3h-269" value="q=32" style="text;html=1;align=center;verticalAlign=middle;resizable=0;points=[];autosize=1;" vertex="1" parent="1">
          <mxGeometry x="2470" y="1387.25" width="50" height="30" as="geometry" />
        </mxCell>
        <mxCell id="YskFfYirQ6dFapuEUr3h-270" value="" style="whiteSpace=wrap;html=1;" vertex="1" parent="1">
          <mxGeometry x="3304" y="504.25" width="120" height="120" as="geometry" />
        </mxCell>
        <mxCell id="YskFfYirQ6dFapuEUr3h-271" value="" style="whiteSpace=wrap;html=1;" vertex="1" parent="1">
          <mxGeometry x="3314" y="514.25" width="120" height="120" as="geometry" />
        </mxCell>
        <mxCell id="YskFfYirQ6dFapuEUr3h-272" value="" style="whiteSpace=wrap;html=1;" vertex="1" parent="1">
          <mxGeometry x="3324" y="524.25" width="120" height="120" as="geometry" />
        </mxCell>
        <mxCell id="YskFfYirQ6dFapuEUr3h-273" value="" style="whiteSpace=wrap;html=1;" vertex="1" parent="1">
          <mxGeometry x="3334" y="534.25" width="120" height="120" as="geometry" />
        </mxCell>
        <mxCell id="YskFfYirQ6dFapuEUr3h-274" value="" style="whiteSpace=wrap;html=1;" vertex="1" parent="1">
          <mxGeometry x="3344" y="544.25" width="120" height="120" as="geometry" />
        </mxCell>
        <mxCell id="YskFfYirQ6dFapuEUr3h-275" value="ifmap" style="whiteSpace=wrap;html=1;" vertex="1" parent="1">
          <mxGeometry x="3354" y="554.25" width="120" height="120" as="geometry" />
        </mxCell>
        <mxCell id="YskFfYirQ6dFapuEUr3h-276" value="ofmap" style="whiteSpace=wrap;html=1;" vertex="1" parent="1">
          <mxGeometry x="3944" y="344.25" width="120" height="120" as="geometry" />
        </mxCell>
        <mxCell id="YskFfYirQ6dFapuEUr3h-277" value="ofmap" style="whiteSpace=wrap;html=1;" vertex="1" parent="1">
          <mxGeometry x="3944" y="508.25" width="120" height="120" as="geometry" />
        </mxCell>
        <mxCell id="YskFfYirQ6dFapuEUr3h-278" value="ofmap" style="whiteSpace=wrap;html=1;" vertex="1" parent="1">
          <mxGeometry x="3944" y="864.25" width="120" height="120" as="geometry" />
        </mxCell>
        <mxCell id="YskFfYirQ6dFapuEUr3h-279" value="R" style="text;html=1;align=center;verticalAlign=middle;resizable=0;points=[];autosize=1;" vertex="1" parent="1">
          <mxGeometry x="3474" y="604.25" width="30" height="30" as="geometry" />
        </mxCell>
        <mxCell id="YskFfYirQ6dFapuEUr3h-280" value="C" style="text;html=1;align=center;verticalAlign=middle;resizable=0;points=[];autosize=1;" vertex="1" parent="1">
          <mxGeometry x="3399" y="674.25" width="30" height="30" as="geometry" />
        </mxCell>
        <mxCell id="YskFfYirQ6dFapuEUr3h-281" value="D 輸入通道數=160" style="text;html=1;align=center;verticalAlign=middle;resizable=0;points=[];autosize=1;strokeColor=none;fillColor=none;" vertex="1" parent="1">
          <mxGeometry x="3264" y="684.25" width="120" height="30" as="geometry" />
        </mxCell>
        <mxCell id="YskFfYirQ6dFapuEUr3h-282" value="K 輸出通道數 = 320" style="text;html=1;align=center;verticalAlign=middle;resizable=0;points=[];autosize=1;strokeColor=none;fillColor=none;" vertex="1" parent="1">
          <mxGeometry x="4094" y="624.25" width="130" height="30" as="geometry" />
        </mxCell>
        <mxCell id="YskFfYirQ6dFapuEUr3h-283" value="" style="endArrow=none;html=1;rounded=0;" edge="1" parent="1">
          <mxGeometry width="50" height="50" relative="1" as="geometry">
            <mxPoint x="4104" y="943.25" as="sourcePoint" />
            <mxPoint x="4104" y="383.25" as="targetPoint" />
          </mxGeometry>
        </mxCell>
        <mxCell id="YskFfYirQ6dFapuEUr3h-284" value="" style="whiteSpace=wrap;html=1;" vertex="1" parent="1">
          <mxGeometry x="3364" y="564.25" width="120" height="120" as="geometry" />
        </mxCell>
        <mxCell id="YskFfYirQ6dFapuEUr3h-285" value="" style="whiteSpace=wrap;html=1;" vertex="1" parent="1">
          <mxGeometry x="3364" y="564.25" width="120" height="120" as="geometry" />
        </mxCell>
        <mxCell id="YskFfYirQ6dFapuEUr3h-286" value="" style="whiteSpace=wrap;html=1;" vertex="1" parent="1">
          <mxGeometry x="3364" y="564.25" width="120" height="120" as="geometry" />
        </mxCell>
        <mxCell id="YskFfYirQ6dFapuEUr3h-287" value="" style="whiteSpace=wrap;html=1;" vertex="1" parent="1">
          <mxGeometry x="3364" y="564.25" width="120" height="120" as="geometry" />
        </mxCell>
        <mxCell id="YskFfYirQ6dFapuEUr3h-288" value="R=16" style="text;html=1;align=center;verticalAlign=middle;resizable=0;points=[];autosize=1;strokeColor=none;fillColor=none;" vertex="1" parent="1">
          <mxGeometry x="3534" y="659.25" width="50" height="30" as="geometry" />
        </mxCell>
        <mxCell id="YskFfYirQ6dFapuEUr3h-289" value="C=16" style="text;html=1;align=center;verticalAlign=middle;resizable=0;points=[];autosize=1;" vertex="1" parent="1">
          <mxGeometry x="3449" y="731.25" width="50" height="30" as="geometry" />
        </mxCell>
        <mxCell id="YskFfYirQ6dFapuEUr3h-290" value="ofmap" style="whiteSpace=wrap;html=1;" vertex="1" parent="1">
          <mxGeometry x="3944" y="663.25" width="120" height="120" as="geometry" />
        </mxCell>
        <mxCell id="YskFfYirQ6dFapuEUr3h-291" value="" style="endArrow=none;html=1;rounded=0;" edge="1" parent="1">
          <mxGeometry width="50" height="50" relative="1" as="geometry">
            <mxPoint x="3924" y="724.25" as="sourcePoint" />
            <mxPoint x="3924" y="384.25" as="targetPoint" />
          </mxGeometry>
        </mxCell>
        <mxCell id="YskFfYirQ6dFapuEUr3h-292" value="p=32" style="text;html=1;align=center;verticalAlign=middle;resizable=0;points=[];autosize=1;strokeColor=none;fillColor=none;" vertex="1" parent="1">
          <mxGeometry x="3874" y="531.25" width="50" height="30" as="geometry" />
        </mxCell>
        <mxCell id="YskFfYirQ6dFapuEUr3h-293" value="" style="whiteSpace=wrap;html=1;aspect=fixed;" vertex="1" parent="1">
          <mxGeometry x="3317.1800000000003" y="330.75" width="118.5" height="118.5" as="geometry" />
        </mxCell>
        <mxCell id="YskFfYirQ6dFapuEUr3h-294" value="" style="whiteSpace=wrap;html=1;fillColor=#fff2cc;strokeColor=#d6b656;" vertex="1" parent="1">
          <mxGeometry x="3317" y="364.75" width="117" height="49.5" as="geometry" />
        </mxCell>
        <mxCell id="YskFfYirQ6dFapuEUr3h-295" value="" style="endArrow=classic;startArrow=classic;html=1;rounded=0;" edge="1" parent="1">
          <mxGeometry width="50" height="50" relative="1" as="geometry">
            <mxPoint x="3447.1800000000003" y="449.25" as="sourcePoint" />
            <mxPoint x="3447.1800000000003" y="329.25" as="targetPoint" />
          </mxGeometry>
        </mxCell>
        <mxCell id="YskFfYirQ6dFapuEUr3h-296" value="tile_R" style="edgeLabel;html=1;align=center;verticalAlign=middle;resizable=0;points=[];" connectable="0" vertex="1" parent="YskFfYirQ6dFapuEUr3h-295">
          <mxGeometry x="0.1041" y="-1" relative="1" as="geometry">
            <mxPoint x="19" y="7" as="offset" />
          </mxGeometry>
        </mxCell>
        <mxCell id="YskFfYirQ6dFapuEUr3h-297" value="" style="endArrow=classic;startArrow=classic;html=1;rounded=0;" edge="1" parent="1">
          <mxGeometry width="50" height="50" relative="1" as="geometry">
            <mxPoint x="3304" y="414.25" as="sourcePoint" />
            <mxPoint x="3303.5000000000005" y="364.25" as="targetPoint" />
          </mxGeometry>
        </mxCell>
        <mxCell id="YskFfYirQ6dFapuEUr3h-298" value="r" style="edgeLabel;html=1;align=center;verticalAlign=middle;resizable=0;points=[];" connectable="0" vertex="1" parent="YskFfYirQ6dFapuEUr3h-297">
          <mxGeometry x="-0.0241" y="-1" relative="1" as="geometry">
            <mxPoint x="-11" as="offset" />
          </mxGeometry>
        </mxCell>
        <mxCell id="YskFfYirQ6dFapuEUr3h-299" value="" style="whiteSpace=wrap;html=1;fillColor=#fff2cc;strokeColor=#d6b656;" vertex="1" parent="1">
          <mxGeometry x="3944" y="704.75" width="120" height="51" as="geometry" />
        </mxCell>
        <mxCell id="YskFfYirQ6dFapuEUr3h-300" value="" style="whiteSpace=wrap;html=1;fillColor=#fff2cc;strokeColor=#d6b656;" vertex="1" parent="1">
          <mxGeometry x="3944" y="545.25" width="120" height="46" as="geometry" />
        </mxCell>
        <mxCell id="YskFfYirQ6dFapuEUr3h-301" value="" style="whiteSpace=wrap;html=1;fillColor=#fff2cc;strokeColor=#d6b656;" vertex="1" parent="1">
          <mxGeometry x="3944" y="388.75" width="120" height="42" as="geometry" />
        </mxCell>
        <mxCell id="YskFfYirQ6dFapuEUr3h-302" value="" style="whiteSpace=wrap;html=1;" vertex="1" parent="1">
          <mxGeometry x="3364" y="564.25" width="120" height="120" as="geometry" />
        </mxCell>
        <mxCell id="YskFfYirQ6dFapuEUr3h-303" value="" style="whiteSpace=wrap;html=1;fillColor=#fff2cc;strokeColor=#d6b656;" vertex="1" parent="1">
          <mxGeometry x="3364" y="605.25" width="120" height="49" as="geometry" />
        </mxCell>
        <mxCell id="YskFfYirQ6dFapuEUr3h-304" value="" style="whiteSpace=wrap;html=1;" vertex="1" parent="1">
          <mxGeometry x="3374" y="574.25" width="120" height="120" as="geometry" />
        </mxCell>
        <mxCell id="YskFfYirQ6dFapuEUr3h-305" value="" style="whiteSpace=wrap;html=1;fillColor=#fff2cc;strokeColor=#d6b656;" vertex="1" parent="1">
          <mxGeometry x="3374" y="615.25" width="120" height="49" as="geometry" />
        </mxCell>
        <mxCell id="YskFfYirQ6dFapuEUr3h-306" value="" style="whiteSpace=wrap;html=1;" vertex="1" parent="1">
          <mxGeometry x="3384" y="584.25" width="120" height="120" as="geometry" />
        </mxCell>
        <mxCell id="YskFfYirQ6dFapuEUr3h-307" value="" style="whiteSpace=wrap;html=1;fillColor=#fff2cc;strokeColor=#d6b656;" vertex="1" parent="1">
          <mxGeometry x="3384" y="625.25" width="120" height="49" as="geometry" />
        </mxCell>
        <mxCell id="YskFfYirQ6dFapuEUr3h-308" value="" style="whiteSpace=wrap;html=1;" vertex="1" parent="1">
          <mxGeometry x="3394" y="594.25" width="120" height="120" as="geometry" />
        </mxCell>
        <mxCell id="YskFfYirQ6dFapuEUr3h-309" value="" style="whiteSpace=wrap;html=1;fillColor=#fff2cc;strokeColor=#d6b656;" vertex="1" parent="1">
          <mxGeometry x="3394" y="635.25" width="120" height="49" as="geometry" />
        </mxCell>
        <mxCell id="YskFfYirQ6dFapuEUr3h-310" value="" style="whiteSpace=wrap;html=1;" vertex="1" parent="1">
          <mxGeometry x="3404" y="604.25" width="120" height="120" as="geometry" />
        </mxCell>
        <mxCell id="YskFfYirQ6dFapuEUr3h-311" value="" style="whiteSpace=wrap;html=1;fillColor=#fff2cc;strokeColor=#d6b656;" vertex="1" parent="1">
          <mxGeometry x="3404" y="645.25" width="120" height="49" as="geometry" />
        </mxCell>
        <mxCell id="YskFfYirQ6dFapuEUr3h-312" value="ifmap" style="whiteSpace=wrap;html=1;" vertex="1" parent="1">
          <mxGeometry x="3414" y="614.25" width="120" height="119" as="geometry" />
        </mxCell>
        <mxCell id="YskFfYirQ6dFapuEUr3h-313" value="" style="whiteSpace=wrap;html=1;fillColor=#fff2cc;strokeColor=#d6b656;" vertex="1" parent="1">
          <mxGeometry x="3414" y="655.25" width="120" height="49" as="geometry" />
        </mxCell>
        <mxCell id="YskFfYirQ6dFapuEUr3h-314" value="q=32" style="text;html=1;align=center;verticalAlign=middle;resizable=0;points=[];autosize=1;" vertex="1" parent="1">
          <mxGeometry x="3504" y="569.25" width="50" height="30" as="geometry" />
        </mxCell>
        <mxCell id="YskFfYirQ6dFapuEUr3h-315" value="d" style="whiteSpace=wrap;html=1;" vertex="1" parent="1">
          <mxGeometry x="3663" y="334.75" width="40" height="40" as="geometry" />
        </mxCell>
        <mxCell id="YskFfYirQ6dFapuEUr3h-316" value="" style="whiteSpace=wrap;html=1;" vertex="1" parent="1">
          <mxGeometry x="3673" y="344.75" width="40" height="40" as="geometry" />
        </mxCell>
        <mxCell id="YskFfYirQ6dFapuEUr3h-317" value="" style="whiteSpace=wrap;html=1;" vertex="1" parent="1">
          <mxGeometry x="3683" y="354.75" width="40" height="40" as="geometry" />
        </mxCell>
        <mxCell id="YskFfYirQ6dFapuEUr3h-318" value="" style="whiteSpace=wrap;html=1;" vertex="1" parent="1">
          <mxGeometry x="3693" y="364.75" width="40" height="40" as="geometry" />
        </mxCell>
        <mxCell id="YskFfYirQ6dFapuEUr3h-319" value="" style="whiteSpace=wrap;html=1;" vertex="1" parent="1">
          <mxGeometry x="3703" y="374.75" width="40" height="40" as="geometry" />
        </mxCell>
        <mxCell id="YskFfYirQ6dFapuEUr3h-320" value="" style="whiteSpace=wrap;html=1;" vertex="1" parent="1">
          <mxGeometry x="3713" y="384.75" width="40" height="40" as="geometry" />
        </mxCell>
        <mxCell id="YskFfYirQ6dFapuEUr3h-321" value="" style="whiteSpace=wrap;html=1;fillColor=#f8cecc;strokeColor=#b85450;" vertex="1" parent="1">
          <mxGeometry x="3723" y="394.75" width="40" height="40" as="geometry" />
        </mxCell>
        <mxCell id="YskFfYirQ6dFapuEUr3h-322" value="" style="whiteSpace=wrap;html=1;fillColor=#f8cecc;strokeColor=#b85450;" vertex="1" parent="1">
          <mxGeometry x="3733" y="404.75" width="40" height="40" as="geometry" />
        </mxCell>
        <mxCell id="YskFfYirQ6dFapuEUr3h-323" value="" style="whiteSpace=wrap;html=1;fillColor=#f8cecc;strokeColor=#b85450;" vertex="1" parent="1">
          <mxGeometry x="3743" y="414.75" width="40" height="40" as="geometry" />
        </mxCell>
        <mxCell id="YskFfYirQ6dFapuEUr3h-324" value="" style="whiteSpace=wrap;html=1;fillColor=#f8cecc;strokeColor=#b85450;" vertex="1" parent="1">
          <mxGeometry x="3753" y="424.75" width="40" height="40" as="geometry" />
        </mxCell>
        <mxCell id="YskFfYirQ6dFapuEUr3h-325" value="" style="whiteSpace=wrap;html=1;fillColor=#f8cecc;strokeColor=#b85450;" vertex="1" parent="1">
          <mxGeometry x="3763" y="434.75" width="40" height="40" as="geometry" />
        </mxCell>
        <mxCell id="YskFfYirQ6dFapuEUr3h-326" value="" style="whiteSpace=wrap;html=1;fillColor=#f8cecc;strokeColor=#b85450;" vertex="1" parent="1">
          <mxGeometry x="3773" y="444.75" width="40" height="40" as="geometry" />
        </mxCell>
        <mxCell id="YskFfYirQ6dFapuEUr3h-327" value="" style="whiteSpace=wrap;html=1;" vertex="1" parent="1">
          <mxGeometry x="3663" y="474.75" width="40" height="40" as="geometry" />
        </mxCell>
        <mxCell id="YskFfYirQ6dFapuEUr3h-328" value="" style="whiteSpace=wrap;html=1;" vertex="1" parent="1">
          <mxGeometry x="3673" y="484.75" width="40" height="40" as="geometry" />
        </mxCell>
        <mxCell id="YskFfYirQ6dFapuEUr3h-329" value="" style="whiteSpace=wrap;html=1;" vertex="1" parent="1">
          <mxGeometry x="3683" y="494.75" width="40" height="40" as="geometry" />
        </mxCell>
        <mxCell id="YskFfYirQ6dFapuEUr3h-330" value="" style="whiteSpace=wrap;html=1;" vertex="1" parent="1">
          <mxGeometry x="3693" y="504.75" width="40" height="40" as="geometry" />
        </mxCell>
        <mxCell id="YskFfYirQ6dFapuEUr3h-331" value="" style="whiteSpace=wrap;html=1;" vertex="1" parent="1">
          <mxGeometry x="3703" y="514.75" width="40" height="40" as="geometry" />
        </mxCell>
        <mxCell id="YskFfYirQ6dFapuEUr3h-332" value="" style="whiteSpace=wrap;html=1;" vertex="1" parent="1">
          <mxGeometry x="3713" y="524.75" width="40" height="40" as="geometry" />
        </mxCell>
        <mxCell id="YskFfYirQ6dFapuEUr3h-333" value="" style="whiteSpace=wrap;html=1;" vertex="1" parent="1">
          <mxGeometry x="3663" y="794.75" width="40" height="40" as="geometry" />
        </mxCell>
        <mxCell id="YskFfYirQ6dFapuEUr3h-334" value="" style="whiteSpace=wrap;html=1;" vertex="1" parent="1">
          <mxGeometry x="3673" y="804.75" width="40" height="40" as="geometry" />
        </mxCell>
        <mxCell id="YskFfYirQ6dFapuEUr3h-335" value="" style="whiteSpace=wrap;html=1;" vertex="1" parent="1">
          <mxGeometry x="3683" y="814.75" width="40" height="40" as="geometry" />
        </mxCell>
        <mxCell id="YskFfYirQ6dFapuEUr3h-336" value="" style="whiteSpace=wrap;html=1;" vertex="1" parent="1">
          <mxGeometry x="3693" y="824.75" width="40" height="40" as="geometry" />
        </mxCell>
        <mxCell id="YskFfYirQ6dFapuEUr3h-337" value="" style="whiteSpace=wrap;html=1;" vertex="1" parent="1">
          <mxGeometry x="3703" y="834.75" width="40" height="40" as="geometry" />
        </mxCell>
        <mxCell id="YskFfYirQ6dFapuEUr3h-338" value="" style="whiteSpace=wrap;html=1;" vertex="1" parent="1">
          <mxGeometry x="3713" y="844.75" width="40" height="40" as="geometry" />
        </mxCell>
        <mxCell id="YskFfYirQ6dFapuEUr3h-339" value="H" style="text;html=1;align=center;verticalAlign=middle;resizable=0;points=[];autosize=1;" vertex="1" parent="1">
          <mxGeometry x="3806" y="451.75" width="30" height="30" as="geometry" />
        </mxCell>
        <mxCell id="YskFfYirQ6dFapuEUr3h-340" value="W" style="text;html=1;align=center;verticalAlign=middle;resizable=0;points=[];autosize=1;" vertex="1" parent="1">
          <mxGeometry x="3778" y="478.75" width="30" height="30" as="geometry" />
        </mxCell>
        <mxCell id="YskFfYirQ6dFapuEUr3h-341" value="" style="whiteSpace=wrap;html=1;fillColor=#dae8fc;strokeColor=#6c8ebf;" vertex="1" parent="1">
          <mxGeometry x="3723" y="534.75" width="40" height="40" as="geometry" />
        </mxCell>
        <mxCell id="YskFfYirQ6dFapuEUr3h-342" value="" style="whiteSpace=wrap;html=1;fillColor=#dae8fc;strokeColor=#6c8ebf;" vertex="1" parent="1">
          <mxGeometry x="3733" y="544.75" width="40" height="40" as="geometry" />
        </mxCell>
        <mxCell id="YskFfYirQ6dFapuEUr3h-343" value="" style="whiteSpace=wrap;html=1;fillColor=#dae8fc;strokeColor=#6c8ebf;" vertex="1" parent="1">
          <mxGeometry x="3743" y="554.75" width="40" height="40" as="geometry" />
        </mxCell>
        <mxCell id="YskFfYirQ6dFapuEUr3h-344" value="" style="whiteSpace=wrap;html=1;fillColor=#dae8fc;strokeColor=#6c8ebf;" vertex="1" parent="1">
          <mxGeometry x="3753" y="564.75" width="40" height="40" as="geometry" />
        </mxCell>
        <mxCell id="YskFfYirQ6dFapuEUr3h-345" value="" style="whiteSpace=wrap;html=1;fillColor=#dae8fc;strokeColor=#6c8ebf;" vertex="1" parent="1">
          <mxGeometry x="3763" y="574.75" width="40" height="40" as="geometry" />
        </mxCell>
        <mxCell id="YskFfYirQ6dFapuEUr3h-346" value="" style="whiteSpace=wrap;html=1;fillColor=#dae8fc;strokeColor=#6c8ebf;" vertex="1" parent="1">
          <mxGeometry x="3773" y="584.75" width="40" height="40" as="geometry" />
        </mxCell>
        <mxCell id="YskFfYirQ6dFapuEUr3h-347" value="q=32" style="text;html=1;align=center;verticalAlign=middle;resizable=0;points=[];autosize=1;strokeColor=none;fillColor=none;" vertex="1" parent="1">
          <mxGeometry x="3786" y="394.75" width="50" height="30" as="geometry" />
        </mxCell>
        <mxCell id="YskFfYirQ6dFapuEUr3h-348" value="" style="whiteSpace=wrap;html=1;" vertex="1" parent="1">
          <mxGeometry x="3722" y="853.75" width="40" height="40" as="geometry" />
        </mxCell>
        <mxCell id="YskFfYirQ6dFapuEUr3h-349" value="" style="whiteSpace=wrap;html=1;" vertex="1" parent="1">
          <mxGeometry x="3732" y="863.75" width="40" height="40" as="geometry" />
        </mxCell>
        <mxCell id="YskFfYirQ6dFapuEUr3h-350" value="" style="whiteSpace=wrap;html=1;" vertex="1" parent="1">
          <mxGeometry x="3742" y="873.75" width="40" height="40" as="geometry" />
        </mxCell>
        <mxCell id="YskFfYirQ6dFapuEUr3h-351" value="" style="whiteSpace=wrap;html=1;" vertex="1" parent="1">
          <mxGeometry x="3752" y="883.75" width="40" height="40" as="geometry" />
        </mxCell>
        <mxCell id="YskFfYirQ6dFapuEUr3h-352" value="" style="whiteSpace=wrap;html=1;" vertex="1" parent="1">
          <mxGeometry x="3762" y="893.75" width="40" height="40" as="geometry" />
        </mxCell>
        <mxCell id="YskFfYirQ6dFapuEUr3h-353" value="" style="whiteSpace=wrap;html=1;" vertex="1" parent="1">
          <mxGeometry x="3772" y="903.75" width="40" height="40" as="geometry" />
        </mxCell>
        <mxCell id="YskFfYirQ6dFapuEUr3h-354" value="" style="whiteSpace=wrap;html=1;" vertex="1" parent="1">
          <mxGeometry x="3667.5" y="634.75" width="40" height="40" as="geometry" />
        </mxCell>
        <mxCell id="YskFfYirQ6dFapuEUr3h-355" value="" style="whiteSpace=wrap;html=1;" vertex="1" parent="1">
          <mxGeometry x="3677.5" y="644.75" width="40" height="40" as="geometry" />
        </mxCell>
        <mxCell id="YskFfYirQ6dFapuEUr3h-356" value="" style="whiteSpace=wrap;html=1;" vertex="1" parent="1">
          <mxGeometry x="3687.5" y="654.75" width="40" height="40" as="geometry" />
        </mxCell>
        <mxCell id="YskFfYirQ6dFapuEUr3h-357" value="" style="whiteSpace=wrap;html=1;" vertex="1" parent="1">
          <mxGeometry x="3697.5" y="664.75" width="40" height="40" as="geometry" />
        </mxCell>
        <mxCell id="YskFfYirQ6dFapuEUr3h-358" value="" style="whiteSpace=wrap;html=1;" vertex="1" parent="1">
          <mxGeometry x="3707.5" y="674.75" width="40" height="40" as="geometry" />
        </mxCell>
        <mxCell id="YskFfYirQ6dFapuEUr3h-359" value="" style="whiteSpace=wrap;html=1;" vertex="1" parent="1">
          <mxGeometry x="3717.5" y="684.75" width="40" height="40" as="geometry" />
        </mxCell>
        <mxCell id="YskFfYirQ6dFapuEUr3h-360" value="" style="whiteSpace=wrap;html=1;fillColor=#d5e8d4;strokeColor=#82b366;" vertex="1" parent="1">
          <mxGeometry x="3726.5" y="693.75" width="40" height="40" as="geometry" />
        </mxCell>
        <mxCell id="YskFfYirQ6dFapuEUr3h-361" value="" style="whiteSpace=wrap;html=1;fillColor=#d5e8d4;strokeColor=#82b366;" vertex="1" parent="1">
          <mxGeometry x="3736.5" y="703.75" width="40" height="40" as="geometry" />
        </mxCell>
        <mxCell id="YskFfYirQ6dFapuEUr3h-362" value="" style="whiteSpace=wrap;html=1;fillColor=#d5e8d4;strokeColor=#82b366;" vertex="1" parent="1">
          <mxGeometry x="3746.5" y="713.75" width="40" height="40" as="geometry" />
        </mxCell>
        <mxCell id="YskFfYirQ6dFapuEUr3h-363" value="" style="whiteSpace=wrap;html=1;fillColor=#d5e8d4;strokeColor=#82b366;" vertex="1" parent="1">
          <mxGeometry x="3756.5" y="723.75" width="40" height="40" as="geometry" />
        </mxCell>
        <mxCell id="YskFfYirQ6dFapuEUr3h-364" value="" style="whiteSpace=wrap;html=1;fillColor=#d5e8d4;strokeColor=#82b366;" vertex="1" parent="1">
          <mxGeometry x="3766.5" y="733.75" width="40" height="40" as="geometry" />
        </mxCell>
        <mxCell id="YskFfYirQ6dFapuEUr3h-365" value="" style="whiteSpace=wrap;html=1;fillColor=#d5e8d4;strokeColor=#82b366;" vertex="1" parent="1">
          <mxGeometry x="3776.5" y="743.75" width="40" height="40" as="geometry" />
        </mxCell>
        <mxCell id="YskFfYirQ6dFapuEUr3h-366" value="" style="endArrow=none;html=1;rounded=0;" edge="1" parent="1">
          <mxGeometry width="50" height="50" relative="1" as="geometry">
            <mxPoint x="3643" y="674.75" as="sourcePoint" />
            <mxPoint x="3643" y="334.75" as="targetPoint" />
          </mxGeometry>
        </mxCell>
        <mxCell id="YskFfYirQ6dFapuEUr3h-367" value="p=32" style="text;html=1;align=center;verticalAlign=middle;resizable=0;points=[];autosize=1;strokeColor=none;fillColor=none;" vertex="1" parent="1">
          <mxGeometry x="3593" y="481.75" width="50" height="30" as="geometry" />
        </mxCell>
        <mxCell id="YskFfYirQ6dFapuEUr3h-368" value="" style="whiteSpace=wrap;html=1;fillColor=#e1d5e7;strokeColor=#9673a6;" vertex="1" parent="1">
          <mxGeometry x="2363" y="482.25" width="20" height="19" as="geometry" />
        </mxCell>
        <mxCell id="YskFfYirQ6dFapuEUr3h-369" value="tile_R" style="text;html=1;align=center;verticalAlign=middle;resizable=0;points=[];autosize=1;strokeColor=none;fillColor=none;" vertex="1" parent="1">
          <mxGeometry x="2532" y="546.25" width="50" height="30" as="geometry" />
        </mxCell>
        <mxCell id="YskFfYirQ6dFapuEUr3h-370" value="" style="whiteSpace=wrap;html=1;fillColor=#e1d5e7;strokeColor=#9673a6;" vertex="1" parent="1">
          <mxGeometry x="2373" y="492.25" width="20" height="19" as="geometry" />
        </mxCell>
        <mxCell id="YskFfYirQ6dFapuEUr3h-371" value="" style="whiteSpace=wrap;html=1;" vertex="1" parent="1">
          <mxGeometry x="2383" y="501.25" width="20" height="19" as="geometry" />
        </mxCell>
        <mxCell id="YskFfYirQ6dFapuEUr3h-372" value="" style="whiteSpace=wrap;html=1;" vertex="1" parent="1">
          <mxGeometry x="2383" y="501.25" width="20" height="19" as="geometry" />
        </mxCell>
        <mxCell id="YskFfYirQ6dFapuEUr3h-373" value="" style="whiteSpace=wrap;html=1;" vertex="1" parent="1">
          <mxGeometry x="2383" y="501.25" width="20" height="19" as="geometry" />
        </mxCell>
        <mxCell id="YskFfYirQ6dFapuEUr3h-374" value="" style="whiteSpace=wrap;html=1;fillColor=#e1d5e7;strokeColor=#9673a6;" vertex="1" parent="1">
          <mxGeometry x="2383" y="501.25" width="20" height="19" as="geometry" />
        </mxCell>
        <mxCell id="YskFfYirQ6dFapuEUr3h-375" value="" style="whiteSpace=wrap;html=1;fillColor=#e1d5e7;strokeColor=#9673a6;" vertex="1" parent="1">
          <mxGeometry x="2393" y="512.25" width="20" height="19" as="geometry" />
        </mxCell>
        <mxCell id="YskFfYirQ6dFapuEUr3h-376" value="" style="whiteSpace=wrap;html=1;fillColor=#e1d5e7;strokeColor=#9673a6;" vertex="1" parent="1">
          <mxGeometry x="2403" y="522.75" width="20" height="19" as="geometry" />
        </mxCell>
        <mxCell id="YskFfYirQ6dFapuEUr3h-377" value="" style="whiteSpace=wrap;html=1;fillColor=#e1d5e7;strokeColor=#9673a6;" vertex="1" parent="1">
          <mxGeometry x="2413" y="532.25" width="20" height="19" as="geometry" />
        </mxCell>
        <mxCell id="YskFfYirQ6dFapuEUr3h-378" value="" style="endArrow=classic;html=1;rounded=0;" edge="1" parent="1">
          <mxGeometry width="50" height="50" relative="1" as="geometry">
            <mxPoint x="2433" y="541.25" as="sourcePoint" />
            <mxPoint x="2535" y="541.25" as="targetPoint" />
          </mxGeometry>
        </mxCell>
        <mxCell id="YskFfYirQ6dFapuEUr3h-379" value="" style="whiteSpace=wrap;html=1;fillColor=#fff2cc;strokeColor=#d6b656;" vertex="1" parent="1">
          <mxGeometry x="2910" y="1480.25" width="120" height="51" as="geometry" />
        </mxCell>
        <mxCell id="YskFfYirQ6dFapuEUr3h-380" value="&lt;font style=&quot;font-size: 25px;&quot;&gt;STEP1&lt;/font&gt;" style="text;html=1;align=center;verticalAlign=middle;resizable=0;points=[];autosize=1;strokeColor=none;fillColor=none;" vertex="1" parent="1">
          <mxGeometry x="2334.68" y="314.25" width="100" height="40" as="geometry" />
        </mxCell>
        <mxCell id="YskFfYirQ6dFapuEUr3h-381" value="&lt;font style=&quot;font-size: 25px;&quot;&gt;STEP2&lt;/font&gt;" style="text;html=1;align=center;verticalAlign=middle;resizable=0;points=[];autosize=1;strokeColor=none;fillColor=none;" vertex="1" parent="1">
          <mxGeometry x="3335.68" y="240.25" width="100" height="40" as="geometry" />
        </mxCell>
        <mxCell id="YskFfYirQ6dFapuEUr3h-382" value="&lt;font style=&quot;font-size: 25px;&quot;&gt;STEP3&lt;/font&gt;" style="text;html=1;align=center;verticalAlign=middle;resizable=0;points=[];autosize=1;strokeColor=none;fillColor=none;" vertex="1" parent="1">
          <mxGeometry x="2274.4700000000003" y="1212.25" width="100" height="40" as="geometry" />
        </mxCell>
        <mxCell id="YskFfYirQ6dFapuEUr3h-383" value="&lt;div&gt;為了降低 weight 讀取次數&lt;/div&gt;&lt;div&gt;優先算完 R 方向 &lt;br&gt;&lt;/div&gt;" style="text;html=1;align=center;verticalAlign=middle;resizable=0;points=[];autosize=1;strokeColor=#b85450;fillColor=#f8cecc;" vertex="1" parent="1">
          <mxGeometry x="2380" y="721.25" width="160" height="40" as="geometry" />
        </mxCell>
        <mxCell id="YskFfYirQ6dFapuEUr3h-384" value="&lt;font style=&quot;font-size: 37px;&quot;&gt;tile方向如下所示&lt;/font&gt;" style="text;html=1;align=center;verticalAlign=middle;resizable=0;points=[];autosize=1;strokeColor=#9673a6;fillColor=#e1d5e7;" vertex="1" parent="1">
          <mxGeometry x="2674.5" y="120" width="290" height="60" as="geometry" />
        </mxCell>
        <mxCell id="YskFfYirQ6dFapuEUr3h-385" value="" style="rounded=0;whiteSpace=wrap;html=1;" vertex="1" parent="1">
          <mxGeometry x="250" y="215" width="270" height="70" as="geometry" />
        </mxCell>
        <mxCell id="YskFfYirQ6dFapuEUr3h-386" value="狀況2" style="rounded=0;whiteSpace=wrap;html=1;fillColor=#fff2cc;strokeColor=#d6b656;" vertex="1" parent="1">
          <mxGeometry x="354" y="210" width="60" height="20" as="geometry" />
        </mxCell>
        <mxCell id="YskFfYirQ6dFapuEUr3h-387" value="weight channel 數 &amp;gt; 32，要 tile，&lt;div&gt;&amp;nbsp;先往整張圖算完(tile_R到最下方)&lt;div&gt;再取後面的 channel 進來，算後面的事情&lt;/div&gt;&lt;/div&gt;" style="text;html=1;align=center;verticalAlign=middle;resizable=0;points=[];autosize=1;strokeColor=none;fillColor=none;" vertex="1" parent="1">
          <mxGeometry x="270" y="230" width="240" height="60" as="geometry" />
        </mxCell>
        <mxCell id="YskFfYirQ6dFapuEUr3h-388" value="" style="rounded=0;whiteSpace=wrap;html=1;" vertex="1" parent="1">
          <mxGeometry x="250" y="313.5" width="270" height="70" as="geometry" />
        </mxCell>
        <mxCell id="YskFfYirQ6dFapuEUr3h-389" value="狀況3" style="rounded=0;whiteSpace=wrap;html=1;fillColor=#fff2cc;strokeColor=#d6b656;" vertex="1" parent="1">
          <mxGeometry x="354" y="308.5" width="60" height="20" as="geometry" />
        </mxCell>
        <mxCell id="YskFfYirQ6dFapuEUr3h-390" value="weight channel 數 &amp;lt; 32，要補0，&lt;div&gt;&amp;nbsp;&lt;br&gt;&lt;/div&gt;" style="text;html=1;align=center;verticalAlign=middle;resizable=0;points=[];autosize=1;strokeColor=none;fillColor=none;" vertex="1" parent="1">
          <mxGeometry x="290" y="343.5" width="200" height="40" as="geometry" />
        </mxCell>
        <mxCell id="YskFfYirQ6dFapuEUr3h-397" value="&lt;span style=&quot;color: rgb(0, 0, 0); font-family: Helvetica; font-style: normal; font-variant-ligatures: normal; font-variant-caps: normal; letter-spacing: normal; orphans: 2; text-align: center; text-indent: 0px; text-transform: none; widows: 2; word-spacing: 0px; -webkit-text-stroke-width: 0px; white-space: normal; text-decoration-thickness: initial; text-decoration-style: initial; text-decoration-color: initial; float: none; display: inline !important;&quot;&gt;&lt;font style=&quot;font-size: 27px;&quot;&gt;&lt;b style=&quot;&quot;&gt;GLB 讀取方法&lt;/b&gt;&lt;/font&gt;&lt;/span&gt;" style="rounded=0;whiteSpace=wrap;html=1;fillColor=#f8cecc;strokeColor=#b85450;" vertex="1" parent="1">
          <mxGeometry x="259" y="472.25" width="506" height="67.75" as="geometry" />
        </mxCell>
        <mxCell id="YskFfYirQ6dFapuEUr3h-437" value="" style="whiteSpace=wrap;html=1;" vertex="1" parent="1">
          <mxGeometry x="90" y="683" width="120" height="120" as="geometry" />
        </mxCell>
        <mxCell id="YskFfYirQ6dFapuEUr3h-438" value="" style="whiteSpace=wrap;html=1;" vertex="1" parent="1">
          <mxGeometry x="100" y="693" width="120" height="120" as="geometry" />
        </mxCell>
        <mxCell id="YskFfYirQ6dFapuEUr3h-439" value="" style="whiteSpace=wrap;html=1;" vertex="1" parent="1">
          <mxGeometry x="110" y="703" width="120" height="120" as="geometry" />
        </mxCell>
        <mxCell id="YskFfYirQ6dFapuEUr3h-440" value="" style="whiteSpace=wrap;html=1;" vertex="1" parent="1">
          <mxGeometry x="120" y="713" width="120" height="120" as="geometry" />
        </mxCell>
        <mxCell id="YskFfYirQ6dFapuEUr3h-441" value="" style="whiteSpace=wrap;html=1;" vertex="1" parent="1">
          <mxGeometry x="130" y="723" width="120" height="120" as="geometry" />
        </mxCell>
        <mxCell id="YskFfYirQ6dFapuEUr3h-442" value="ifmap" style="whiteSpace=wrap;html=1;" vertex="1" parent="1">
          <mxGeometry x="140" y="733" width="120" height="120" as="geometry" />
        </mxCell>
        <mxCell id="YskFfYirQ6dFapuEUr3h-443" value="R" style="text;html=1;align=center;verticalAlign=middle;resizable=0;points=[];autosize=1;" vertex="1" parent="1">
          <mxGeometry x="260" y="783" width="30" height="30" as="geometry" />
        </mxCell>
        <mxCell id="YskFfYirQ6dFapuEUr3h-444" value="C" style="text;html=1;align=center;verticalAlign=middle;resizable=0;points=[];autosize=1;" vertex="1" parent="1">
          <mxGeometry x="185" y="853" width="30" height="30" as="geometry" />
        </mxCell>
        <mxCell id="YskFfYirQ6dFapuEUr3h-445" value="D 輸入通道數" style="text;html=1;align=center;verticalAlign=middle;resizable=0;points=[];autosize=1;strokeColor=none;fillColor=none;" vertex="1" parent="1">
          <mxGeometry x="60" y="863" width="100" height="30" as="geometry" />
        </mxCell>
        <mxCell id="YskFfYirQ6dFapuEUr3h-446" value="" style="whiteSpace=wrap;html=1;" vertex="1" parent="1">
          <mxGeometry x="150" y="743" width="120" height="120" as="geometry" />
        </mxCell>
        <mxCell id="YskFfYirQ6dFapuEUr3h-447" value="" style="whiteSpace=wrap;html=1;" vertex="1" parent="1">
          <mxGeometry x="150" y="743" width="120" height="120" as="geometry" />
        </mxCell>
        <mxCell id="YskFfYirQ6dFapuEUr3h-448" value="" style="whiteSpace=wrap;html=1;" vertex="1" parent="1">
          <mxGeometry x="150" y="743" width="120" height="120" as="geometry" />
        </mxCell>
        <mxCell id="YskFfYirQ6dFapuEUr3h-449" value="" style="whiteSpace=wrap;html=1;" vertex="1" parent="1">
          <mxGeometry x="150" y="743" width="120" height="120" as="geometry" />
        </mxCell>
        <mxCell id="YskFfYirQ6dFapuEUr3h-450" value="" style="whiteSpace=wrap;html=1;" vertex="1" parent="1">
          <mxGeometry x="150" y="743" width="120" height="120" as="geometry" />
        </mxCell>
        <mxCell id="YskFfYirQ6dFapuEUr3h-451" value="" style="whiteSpace=wrap;html=1;" vertex="1" parent="1">
          <mxGeometry x="160" y="753" width="120" height="120" as="geometry" />
        </mxCell>
        <mxCell id="YskFfYirQ6dFapuEUr3h-452" value="" style="whiteSpace=wrap;html=1;" vertex="1" parent="1">
          <mxGeometry x="170" y="763" width="120" height="120" as="geometry" />
        </mxCell>
        <mxCell id="YskFfYirQ6dFapuEUr3h-453" value="" style="whiteSpace=wrap;html=1;" vertex="1" parent="1">
          <mxGeometry x="180" y="773" width="120" height="120" as="geometry" />
        </mxCell>
        <mxCell id="YskFfYirQ6dFapuEUr3h-454" value="" style="whiteSpace=wrap;html=1;" vertex="1" parent="1">
          <mxGeometry x="190" y="783" width="120" height="120" as="geometry" />
        </mxCell>
        <mxCell id="YskFfYirQ6dFapuEUr3h-455" value="ifmap" style="whiteSpace=wrap;html=1;" vertex="1" parent="1">
          <mxGeometry x="200" y="793" width="120" height="119" as="geometry" />
        </mxCell>
        <mxCell id="YskFfYirQ6dFapuEUr3h-456" value="R" style="text;html=1;align=center;verticalAlign=middle;resizable=0;points=[];autosize=1;strokeColor=none;fillColor=none;" vertex="1" parent="1">
          <mxGeometry x="315" y="858" width="30" height="30" as="geometry" />
        </mxCell>
        <mxCell id="YskFfYirQ6dFapuEUr3h-457" value="C" style="text;html=1;align=center;verticalAlign=middle;resizable=0;points=[];autosize=1;" vertex="1" parent="1">
          <mxGeometry x="245" y="903" width="30" height="30" as="geometry" />
        </mxCell>
        <mxCell id="YskFfYirQ6dFapuEUr3h-458" value="tile_D=32" style="text;html=1;align=center;verticalAlign=middle;resizable=0;points=[];autosize=1;" vertex="1" parent="1">
          <mxGeometry x="285" y="748" width="70" height="30" as="geometry" />
        </mxCell>
        <mxCell id="YskFfYirQ6dFapuEUr3h-459" value="" style="whiteSpace=wrap;html=1;fillColor=#fff2cc;strokeColor=#d6b656;" vertex="1" parent="1">
          <mxGeometry x="150" y="743" width="120" height="49" as="geometry" />
        </mxCell>
        <mxCell id="YskFfYirQ6dFapuEUr3h-460" value="" style="whiteSpace=wrap;html=1;fillColor=#fff2cc;strokeColor=#d6b656;" vertex="1" parent="1">
          <mxGeometry x="160" y="753" width="120" height="49" as="geometry" />
        </mxCell>
        <mxCell id="YskFfYirQ6dFapuEUr3h-461" value="" style="whiteSpace=wrap;html=1;fillColor=#fff2cc;strokeColor=#d6b656;" vertex="1" parent="1">
          <mxGeometry x="170" y="762" width="120" height="49" as="geometry" />
        </mxCell>
        <mxCell id="YskFfYirQ6dFapuEUr3h-462" value="" style="whiteSpace=wrap;html=1;fillColor=#fff2cc;strokeColor=#d6b656;" vertex="1" parent="1">
          <mxGeometry x="180" y="773" width="120" height="49" as="geometry" />
        </mxCell>
        <mxCell id="YskFfYirQ6dFapuEUr3h-463" value="" style="whiteSpace=wrap;html=1;fillColor=#fff2cc;strokeColor=#d6b656;" vertex="1" parent="1">
          <mxGeometry x="190" y="783" width="120" height="49" as="geometry" />
        </mxCell>
        <mxCell id="YskFfYirQ6dFapuEUr3h-464" value="" style="whiteSpace=wrap;html=1;fillColor=#fff2cc;strokeColor=#d6b656;" vertex="1" parent="1">
          <mxGeometry x="200" y="793" width="120" height="49" as="geometry" />
        </mxCell>
        <mxCell id="YskFfYirQ6dFapuEUr3h-466" value="tile_R" style="text;html=1;align=center;verticalAlign=middle;resizable=0;points=[];autosize=1;strokeColor=none;fillColor=none;" vertex="1" parent="1">
          <mxGeometry x="319" y="807" width="50" height="30" as="geometry" />
        </mxCell>
        <mxCell id="YskFfYirQ6dFapuEUr3h-474" value="" style="whiteSpace=wrap;html=1;fillColor=#e1d5e7;strokeColor=#9673a6;" vertex="1" parent="1">
          <mxGeometry x="200" y="793" width="20" height="19" as="geometry" />
        </mxCell>
        <mxCell id="YskFfYirQ6dFapuEUr3h-475" value="" style="endArrow=classic;html=1;rounded=0;" edge="1" parent="1" source="YskFfYirQ6dFapuEUr3h-480">
          <mxGeometry width="50" height="50" relative="1" as="geometry">
            <mxPoint x="220" y="802" as="sourcePoint" />
            <mxPoint x="322" y="802" as="targetPoint" />
          </mxGeometry>
        </mxCell>
        <mxCell id="YskFfYirQ6dFapuEUr3h-476" value="&lt;font style=&quot;font-size: 15px;&quot;&gt;&lt;b&gt;1&lt;/b&gt;&lt;/font&gt;" style="rounded=0;whiteSpace=wrap;html=1;fillColor=#dae8fc;strokeColor=#6c8ebf;" vertex="1" parent="1">
          <mxGeometry x="50" y="647.75" width="30" height="31.5" as="geometry" />
        </mxCell>
        <mxCell id="YskFfYirQ6dFapuEUr3h-478" value="" style="endArrow=classic;html=1;rounded=0;" edge="1" parent="1" target="YskFfYirQ6dFapuEUr3h-477">
          <mxGeometry width="50" height="50" relative="1" as="geometry">
            <mxPoint x="220" y="802" as="sourcePoint" />
            <mxPoint x="322" y="802" as="targetPoint" />
          </mxGeometry>
        </mxCell>
        <mxCell id="YskFfYirQ6dFapuEUr3h-477" value="" style="whiteSpace=wrap;html=1;fillColor=#e1d5e7;strokeColor=#9673a6;" vertex="1" parent="1">
          <mxGeometry x="220" y="793.5" width="20" height="19" as="geometry" />
        </mxCell>
        <mxCell id="YskFfYirQ6dFapuEUr3h-479" value="" style="whiteSpace=wrap;html=1;fillColor=#e1d5e7;strokeColor=#9673a6;" vertex="1" parent="1">
          <mxGeometry x="241" y="793" width="20" height="19" as="geometry" />
        </mxCell>
        <mxCell id="YskFfYirQ6dFapuEUr3h-480" value="" style="whiteSpace=wrap;html=1;fillColor=#e1d5e7;strokeColor=#9673a6;" vertex="1" parent="1">
          <mxGeometry x="261" y="793.5" width="20" height="19" as="geometry" />
        </mxCell>
        <mxCell id="YskFfYirQ6dFapuEUr3h-482" value="" style="whiteSpace=wrap;html=1;" vertex="1" parent="1">
          <mxGeometry x="80.5" y="976.75" width="120" height="120" as="geometry" />
        </mxCell>
        <mxCell id="YskFfYirQ6dFapuEUr3h-483" value="" style="whiteSpace=wrap;html=1;" vertex="1" parent="1">
          <mxGeometry x="90.5" y="986.75" width="120" height="120" as="geometry" />
        </mxCell>
        <mxCell id="YskFfYirQ6dFapuEUr3h-484" value="" style="whiteSpace=wrap;html=1;" vertex="1" parent="1">
          <mxGeometry x="100.5" y="996.75" width="120" height="120" as="geometry" />
        </mxCell>
        <mxCell id="YskFfYirQ6dFapuEUr3h-485" value="" style="whiteSpace=wrap;html=1;" vertex="1" parent="1">
          <mxGeometry x="110.5" y="1006.75" width="120" height="120" as="geometry" />
        </mxCell>
        <mxCell id="YskFfYirQ6dFapuEUr3h-486" value="" style="whiteSpace=wrap;html=1;" vertex="1" parent="1">
          <mxGeometry x="120.5" y="1016.75" width="120" height="120" as="geometry" />
        </mxCell>
        <mxCell id="YskFfYirQ6dFapuEUr3h-487" value="ifmap" style="whiteSpace=wrap;html=1;" vertex="1" parent="1">
          <mxGeometry x="130.5" y="1026.75" width="120" height="120" as="geometry" />
        </mxCell>
        <mxCell id="YskFfYirQ6dFapuEUr3h-488" value="R" style="text;html=1;align=center;verticalAlign=middle;resizable=0;points=[];autosize=1;" vertex="1" parent="1">
          <mxGeometry x="250.5" y="1076.75" width="30" height="30" as="geometry" />
        </mxCell>
        <mxCell id="YskFfYirQ6dFapuEUr3h-489" value="C" style="text;html=1;align=center;verticalAlign=middle;resizable=0;points=[];autosize=1;" vertex="1" parent="1">
          <mxGeometry x="175.5" y="1146.75" width="30" height="30" as="geometry" />
        </mxCell>
        <mxCell id="YskFfYirQ6dFapuEUr3h-490" value="D 輸入通道數" style="text;html=1;align=center;verticalAlign=middle;resizable=0;points=[];autosize=1;strokeColor=none;fillColor=none;" vertex="1" parent="1">
          <mxGeometry x="50.5" y="1156.75" width="100" height="30" as="geometry" />
        </mxCell>
        <mxCell id="YskFfYirQ6dFapuEUr3h-491" value="" style="whiteSpace=wrap;html=1;" vertex="1" parent="1">
          <mxGeometry x="140.5" y="1036.75" width="120" height="120" as="geometry" />
        </mxCell>
        <mxCell id="YskFfYirQ6dFapuEUr3h-492" value="" style="whiteSpace=wrap;html=1;" vertex="1" parent="1">
          <mxGeometry x="140.5" y="1036.75" width="120" height="120" as="geometry" />
        </mxCell>
        <mxCell id="YskFfYirQ6dFapuEUr3h-493" value="" style="whiteSpace=wrap;html=1;" vertex="1" parent="1">
          <mxGeometry x="140.5" y="1036.75" width="120" height="120" as="geometry" />
        </mxCell>
        <mxCell id="YskFfYirQ6dFapuEUr3h-494" value="" style="whiteSpace=wrap;html=1;" vertex="1" parent="1">
          <mxGeometry x="140.5" y="1036.75" width="120" height="120" as="geometry" />
        </mxCell>
        <mxCell id="YskFfYirQ6dFapuEUr3h-495" value="" style="whiteSpace=wrap;html=1;" vertex="1" parent="1">
          <mxGeometry x="140.5" y="1036.75" width="120" height="120" as="geometry" />
        </mxCell>
        <mxCell id="YskFfYirQ6dFapuEUr3h-496" value="" style="whiteSpace=wrap;html=1;" vertex="1" parent="1">
          <mxGeometry x="150.5" y="1046.75" width="120" height="120" as="geometry" />
        </mxCell>
        <mxCell id="YskFfYirQ6dFapuEUr3h-497" value="" style="whiteSpace=wrap;html=1;" vertex="1" parent="1">
          <mxGeometry x="160.5" y="1056.75" width="120" height="120" as="geometry" />
        </mxCell>
        <mxCell id="YskFfYirQ6dFapuEUr3h-498" value="" style="whiteSpace=wrap;html=1;" vertex="1" parent="1">
          <mxGeometry x="170.5" y="1066.75" width="120" height="120" as="geometry" />
        </mxCell>
        <mxCell id="YskFfYirQ6dFapuEUr3h-499" value="" style="whiteSpace=wrap;html=1;" vertex="1" parent="1">
          <mxGeometry x="180.5" y="1076.75" width="120" height="120" as="geometry" />
        </mxCell>
        <mxCell id="YskFfYirQ6dFapuEUr3h-500" value="ifmap" style="whiteSpace=wrap;html=1;" vertex="1" parent="1">
          <mxGeometry x="190.5" y="1086.75" width="120" height="119" as="geometry" />
        </mxCell>
        <mxCell id="YskFfYirQ6dFapuEUr3h-501" value="R" style="text;html=1;align=center;verticalAlign=middle;resizable=0;points=[];autosize=1;strokeColor=none;fillColor=none;" vertex="1" parent="1">
          <mxGeometry x="305.5" y="1151.75" width="30" height="30" as="geometry" />
        </mxCell>
        <mxCell id="YskFfYirQ6dFapuEUr3h-502" value="C" style="text;html=1;align=center;verticalAlign=middle;resizable=0;points=[];autosize=1;" vertex="1" parent="1">
          <mxGeometry x="235.5" y="1196.75" width="30" height="30" as="geometry" />
        </mxCell>
        <mxCell id="YskFfYirQ6dFapuEUr3h-503" value="tile_D=32" style="text;html=1;align=center;verticalAlign=middle;resizable=0;points=[];autosize=1;" vertex="1" parent="1">
          <mxGeometry x="275.5" y="1041.75" width="70" height="30" as="geometry" />
        </mxCell>
        <mxCell id="YskFfYirQ6dFapuEUr3h-504" value="" style="whiteSpace=wrap;html=1;fillColor=#fff2cc;strokeColor=#d6b656;" vertex="1" parent="1">
          <mxGeometry x="140.5" y="1036.75" width="120" height="49" as="geometry" />
        </mxCell>
        <mxCell id="YskFfYirQ6dFapuEUr3h-505" value="" style="whiteSpace=wrap;html=1;fillColor=#fff2cc;strokeColor=#d6b656;" vertex="1" parent="1">
          <mxGeometry x="150.5" y="1046.75" width="120" height="49" as="geometry" />
        </mxCell>
        <mxCell id="YskFfYirQ6dFapuEUr3h-506" value="" style="whiteSpace=wrap;html=1;fillColor=#fff2cc;strokeColor=#d6b656;" vertex="1" parent="1">
          <mxGeometry x="160.5" y="1055.75" width="120" height="49" as="geometry" />
        </mxCell>
        <mxCell id="YskFfYirQ6dFapuEUr3h-507" value="" style="whiteSpace=wrap;html=1;fillColor=#fff2cc;strokeColor=#d6b656;" vertex="1" parent="1">
          <mxGeometry x="170.5" y="1066.75" width="120" height="49" as="geometry" />
        </mxCell>
        <mxCell id="YskFfYirQ6dFapuEUr3h-508" value="" style="whiteSpace=wrap;html=1;fillColor=#fff2cc;strokeColor=#d6b656;" vertex="1" parent="1">
          <mxGeometry x="180.5" y="1076.75" width="120" height="49" as="geometry" />
        </mxCell>
        <mxCell id="YskFfYirQ6dFapuEUr3h-510" value="tile_R" style="text;html=1;align=center;verticalAlign=middle;resizable=0;points=[];autosize=1;strokeColor=none;fillColor=none;" vertex="1" parent="1">
          <mxGeometry x="309.5" y="1100.75" width="50" height="30" as="geometry" />
        </mxCell>
        <mxCell id="YskFfYirQ6dFapuEUr3h-511" value="" style="whiteSpace=wrap;html=1;fillColor=#e1d5e7;strokeColor=#9673a6;" vertex="1" parent="1">
          <mxGeometry x="180.5" y="1077.75" width="20" height="19" as="geometry" />
        </mxCell>
        <mxCell id="YskFfYirQ6dFapuEUr3h-513" value="&lt;font style=&quot;font-size: 15px;&quot;&gt;&lt;b&gt;2&lt;/b&gt;&lt;/font&gt;" style="rounded=0;whiteSpace=wrap;html=1;fillColor=#dae8fc;strokeColor=#6c8ebf;" vertex="1" parent="1">
          <mxGeometry x="40.5" y="941.5" width="30" height="31.5" as="geometry" />
        </mxCell>
        <mxCell id="YskFfYirQ6dFapuEUr3h-514" value="" style="endArrow=classic;html=1;rounded=0;" edge="1" parent="1" target="YskFfYirQ6dFapuEUr3h-515">
          <mxGeometry width="50" height="50" relative="1" as="geometry">
            <mxPoint x="210.5" y="1095.75" as="sourcePoint" />
            <mxPoint x="312.5" y="1095.75" as="targetPoint" />
          </mxGeometry>
        </mxCell>
        <mxCell id="YskFfYirQ6dFapuEUr3h-515" value="" style="whiteSpace=wrap;html=1;fillColor=#e1d5e7;strokeColor=#9673a6;" vertex="1" parent="1">
          <mxGeometry x="200" y="1077.75" width="20" height="19" as="geometry" />
        </mxCell>
        <mxCell id="YskFfYirQ6dFapuEUr3h-516" value="" style="whiteSpace=wrap;html=1;fillColor=#e1d5e7;strokeColor=#9673a6;" vertex="1" parent="1">
          <mxGeometry x="221" y="1077.75" width="20" height="19" as="geometry" />
        </mxCell>
        <mxCell id="YskFfYirQ6dFapuEUr3h-517" value="" style="whiteSpace=wrap;html=1;fillColor=#e1d5e7;strokeColor=#9673a6;" vertex="1" parent="1">
          <mxGeometry x="240.5" y="1077.75" width="20" height="19" as="geometry" />
        </mxCell>
        <mxCell id="YskFfYirQ6dFapuEUr3h-509" value="" style="whiteSpace=wrap;html=1;fillColor=#fff2cc;strokeColor=#d6b656;" vertex="1" parent="1">
          <mxGeometry x="190.5" y="1086.75" width="120" height="49" as="geometry" />
        </mxCell>
        <mxCell id="YskFfYirQ6dFapuEUr3h-518" value="" style="whiteSpace=wrap;html=1;" vertex="1" parent="1">
          <mxGeometry x="49" y="1292.63" width="120" height="120" as="geometry" />
        </mxCell>
        <mxCell id="YskFfYirQ6dFapuEUr3h-519" value="" style="whiteSpace=wrap;html=1;" vertex="1" parent="1">
          <mxGeometry x="59" y="1302.63" width="120" height="120" as="geometry" />
        </mxCell>
        <mxCell id="YskFfYirQ6dFapuEUr3h-520" value="" style="whiteSpace=wrap;html=1;" vertex="1" parent="1">
          <mxGeometry x="69" y="1312.63" width="120" height="120" as="geometry" />
        </mxCell>
        <mxCell id="YskFfYirQ6dFapuEUr3h-521" value="" style="whiteSpace=wrap;html=1;" vertex="1" parent="1">
          <mxGeometry x="79" y="1322.63" width="120" height="120" as="geometry" />
        </mxCell>
        <mxCell id="YskFfYirQ6dFapuEUr3h-522" value="" style="whiteSpace=wrap;html=1;" vertex="1" parent="1">
          <mxGeometry x="89" y="1332.63" width="120" height="120" as="geometry" />
        </mxCell>
        <mxCell id="YskFfYirQ6dFapuEUr3h-523" value="ifmap" style="whiteSpace=wrap;html=1;" vertex="1" parent="1">
          <mxGeometry x="99" y="1342.63" width="120" height="120" as="geometry" />
        </mxCell>
        <mxCell id="YskFfYirQ6dFapuEUr3h-524" value="R" style="text;html=1;align=center;verticalAlign=middle;resizable=0;points=[];autosize=1;" vertex="1" parent="1">
          <mxGeometry x="219" y="1392.63" width="30" height="30" as="geometry" />
        </mxCell>
        <mxCell id="YskFfYirQ6dFapuEUr3h-525" value="C" style="text;html=1;align=center;verticalAlign=middle;resizable=0;points=[];autosize=1;" vertex="1" parent="1">
          <mxGeometry x="144" y="1462.63" width="30" height="30" as="geometry" />
        </mxCell>
        <mxCell id="YskFfYirQ6dFapuEUr3h-526" value="D 輸入通道數" style="text;html=1;align=center;verticalAlign=middle;resizable=0;points=[];autosize=1;strokeColor=none;fillColor=none;" vertex="1" parent="1">
          <mxGeometry x="19" y="1472.63" width="100" height="30" as="geometry" />
        </mxCell>
        <mxCell id="YskFfYirQ6dFapuEUr3h-527" value="" style="whiteSpace=wrap;html=1;" vertex="1" parent="1">
          <mxGeometry x="109" y="1352.63" width="120" height="120" as="geometry" />
        </mxCell>
        <mxCell id="YskFfYirQ6dFapuEUr3h-528" value="" style="whiteSpace=wrap;html=1;" vertex="1" parent="1">
          <mxGeometry x="109" y="1352.63" width="120" height="120" as="geometry" />
        </mxCell>
        <mxCell id="YskFfYirQ6dFapuEUr3h-529" value="" style="whiteSpace=wrap;html=1;" vertex="1" parent="1">
          <mxGeometry x="109" y="1352.63" width="120" height="120" as="geometry" />
        </mxCell>
        <mxCell id="YskFfYirQ6dFapuEUr3h-530" value="" style="whiteSpace=wrap;html=1;" vertex="1" parent="1">
          <mxGeometry x="109" y="1352.63" width="120" height="120" as="geometry" />
        </mxCell>
        <mxCell id="YskFfYirQ6dFapuEUr3h-531" value="" style="whiteSpace=wrap;html=1;" vertex="1" parent="1">
          <mxGeometry x="109" y="1352.63" width="120" height="120" as="geometry" />
        </mxCell>
        <mxCell id="YskFfYirQ6dFapuEUr3h-532" value="" style="whiteSpace=wrap;html=1;" vertex="1" parent="1">
          <mxGeometry x="119" y="1362.63" width="120" height="120" as="geometry" />
        </mxCell>
        <mxCell id="YskFfYirQ6dFapuEUr3h-533" value="" style="whiteSpace=wrap;html=1;" vertex="1" parent="1">
          <mxGeometry x="129" y="1372.63" width="120" height="120" as="geometry" />
        </mxCell>
        <mxCell id="YskFfYirQ6dFapuEUr3h-534" value="" style="whiteSpace=wrap;html=1;" vertex="1" parent="1">
          <mxGeometry x="139" y="1382.63" width="120" height="120" as="geometry" />
        </mxCell>
        <mxCell id="YskFfYirQ6dFapuEUr3h-535" value="" style="whiteSpace=wrap;html=1;" vertex="1" parent="1">
          <mxGeometry x="149" y="1392.63" width="120" height="120" as="geometry" />
        </mxCell>
        <mxCell id="YskFfYirQ6dFapuEUr3h-536" value="ifmap" style="whiteSpace=wrap;html=1;" vertex="1" parent="1">
          <mxGeometry x="159" y="1402.63" width="120" height="119" as="geometry" />
        </mxCell>
        <mxCell id="YskFfYirQ6dFapuEUr3h-537" value="R" style="text;html=1;align=center;verticalAlign=middle;resizable=0;points=[];autosize=1;strokeColor=none;fillColor=none;" vertex="1" parent="1">
          <mxGeometry x="274" y="1467.63" width="30" height="30" as="geometry" />
        </mxCell>
        <mxCell id="YskFfYirQ6dFapuEUr3h-538" value="C" style="text;html=1;align=center;verticalAlign=middle;resizable=0;points=[];autosize=1;" vertex="1" parent="1">
          <mxGeometry x="204" y="1512.63" width="30" height="30" as="geometry" />
        </mxCell>
        <mxCell id="YskFfYirQ6dFapuEUr3h-539" value="tile_D=32" style="text;html=1;align=center;verticalAlign=middle;resizable=0;points=[];autosize=1;" vertex="1" parent="1">
          <mxGeometry x="244" y="1357.63" width="70" height="30" as="geometry" />
        </mxCell>
        <mxCell id="YskFfYirQ6dFapuEUr3h-540" value="" style="whiteSpace=wrap;html=1;fillColor=#fff2cc;strokeColor=#d6b656;" vertex="1" parent="1">
          <mxGeometry x="109" y="1352.63" width="120" height="49" as="geometry" />
        </mxCell>
        <mxCell id="YskFfYirQ6dFapuEUr3h-541" value="" style="whiteSpace=wrap;html=1;fillColor=#fff2cc;strokeColor=#d6b656;" vertex="1" parent="1">
          <mxGeometry x="119" y="1362.63" width="120" height="49" as="geometry" />
        </mxCell>
        <mxCell id="YskFfYirQ6dFapuEUr3h-542" value="" style="whiteSpace=wrap;html=1;fillColor=#fff2cc;strokeColor=#d6b656;" vertex="1" parent="1">
          <mxGeometry x="129" y="1371.63" width="120" height="49" as="geometry" />
        </mxCell>
        <mxCell id="YskFfYirQ6dFapuEUr3h-543" value="" style="whiteSpace=wrap;html=1;fillColor=#fff2cc;strokeColor=#d6b656;" vertex="1" parent="1">
          <mxGeometry x="139" y="1382.63" width="120" height="49" as="geometry" />
        </mxCell>
        <mxCell id="YskFfYirQ6dFapuEUr3h-545" value="tile_R" style="text;html=1;align=center;verticalAlign=middle;resizable=0;points=[];autosize=1;strokeColor=none;fillColor=none;" vertex="1" parent="1">
          <mxGeometry x="278" y="1416.63" width="50" height="30" as="geometry" />
        </mxCell>
        <mxCell id="YskFfYirQ6dFapuEUr3h-546" value="" style="whiteSpace=wrap;html=1;fillColor=#e1d5e7;strokeColor=#9673a6;" vertex="1" parent="1">
          <mxGeometry x="139" y="1383.63" width="20" height="19" as="geometry" />
        </mxCell>
        <mxCell id="YskFfYirQ6dFapuEUr3h-547" value="&lt;font style=&quot;font-size: 15px;&quot;&gt;&lt;b&gt;3&lt;/b&gt;&lt;/font&gt;" style="rounded=0;whiteSpace=wrap;html=1;fillColor=#dae8fc;strokeColor=#6c8ebf;" vertex="1" parent="1">
          <mxGeometry x="9" y="1257.38" width="30" height="31.5" as="geometry" />
        </mxCell>
        <mxCell id="YskFfYirQ6dFapuEUr3h-548" value="" style="endArrow=classic;html=1;rounded=0;" edge="1" parent="1" target="YskFfYirQ6dFapuEUr3h-549">
          <mxGeometry width="50" height="50" relative="1" as="geometry">
            <mxPoint x="179" y="1411.63" as="sourcePoint" />
            <mxPoint x="281" y="1411.63" as="targetPoint" />
          </mxGeometry>
        </mxCell>
        <mxCell id="YskFfYirQ6dFapuEUr3h-549" value="" style="whiteSpace=wrap;html=1;fillColor=#e1d5e7;strokeColor=#9673a6;" vertex="1" parent="1">
          <mxGeometry x="158.5" y="1383.63" width="20" height="19" as="geometry" />
        </mxCell>
        <mxCell id="YskFfYirQ6dFapuEUr3h-550" value="" style="whiteSpace=wrap;html=1;fillColor=#e1d5e7;strokeColor=#9673a6;" vertex="1" parent="1">
          <mxGeometry x="179.5" y="1383.63" width="20" height="19" as="geometry" />
        </mxCell>
        <mxCell id="YskFfYirQ6dFapuEUr3h-551" value="" style="whiteSpace=wrap;html=1;fillColor=#e1d5e7;strokeColor=#9673a6;" vertex="1" parent="1">
          <mxGeometry x="199" y="1383.63" width="20" height="19" as="geometry" />
        </mxCell>
        <mxCell id="YskFfYirQ6dFapuEUr3h-544" value="" style="whiteSpace=wrap;html=1;fillColor=#fff2cc;strokeColor=#d6b656;" vertex="1" parent="1">
          <mxGeometry x="149" y="1392.63" width="120" height="49" as="geometry" />
        </mxCell>
        <mxCell id="YskFfYirQ6dFapuEUr3h-552" value="" style="whiteSpace=wrap;html=1;fillColor=#fff2cc;strokeColor=#d6b656;" vertex="1" parent="1">
          <mxGeometry x="159" y="1402.63" width="120" height="49" as="geometry" />
        </mxCell>
        <mxCell id="YskFfYirQ6dFapuEUr3h-556" value="&lt;font style=&quot;font-size: 21px;&quot;&gt;&lt;b&gt;ifmap&lt;/b&gt;&lt;/font&gt;" style="rounded=0;whiteSpace=wrap;html=1;fillColor=#d5e8d4;strokeColor=#82b366;" vertex="1" parent="1">
          <mxGeometry x="119" y="561.25" width="120" height="60" as="geometry" />
        </mxCell>
        <mxCell id="YskFfYirQ6dFapuEUr3h-557" value="&lt;font style=&quot;font-size: 21px;&quot;&gt;&lt;b&gt;weight&lt;/b&gt;&lt;/font&gt;" style="rounded=0;whiteSpace=wrap;html=1;fillColor=#d5e8d4;strokeColor=#82b366;" vertex="1" parent="1">
          <mxGeometry x="594.5" y="555.25" width="120" height="60" as="geometry" />
        </mxCell>
        <mxCell id="YskFfYirQ6dFapuEUr3h-558" value="d" style="whiteSpace=wrap;html=1;" vertex="1" parent="1">
          <mxGeometry x="590" y="701.25" width="40" height="40" as="geometry" />
        </mxCell>
        <mxCell id="YskFfYirQ6dFapuEUr3h-559" value="" style="whiteSpace=wrap;html=1;" vertex="1" parent="1">
          <mxGeometry x="600" y="711.25" width="40" height="40" as="geometry" />
        </mxCell>
        <mxCell id="YskFfYirQ6dFapuEUr3h-560" value="" style="whiteSpace=wrap;html=1;" vertex="1" parent="1">
          <mxGeometry x="610" y="721.25" width="40" height="40" as="geometry" />
        </mxCell>
        <mxCell id="YskFfYirQ6dFapuEUr3h-561" value="" style="whiteSpace=wrap;html=1;" vertex="1" parent="1">
          <mxGeometry x="620" y="731.25" width="40" height="40" as="geometry" />
        </mxCell>
        <mxCell id="YskFfYirQ6dFapuEUr3h-562" value="" style="whiteSpace=wrap;html=1;" vertex="1" parent="1">
          <mxGeometry x="630" y="741.25" width="40" height="40" as="geometry" />
        </mxCell>
        <mxCell id="YskFfYirQ6dFapuEUr3h-563" value="" style="whiteSpace=wrap;html=1;" vertex="1" parent="1">
          <mxGeometry x="640" y="751.25" width="40" height="40" as="geometry" />
        </mxCell>
        <mxCell id="YskFfYirQ6dFapuEUr3h-564" value="" style="whiteSpace=wrap;html=1;fillColor=#f8cecc;strokeColor=#b85450;" vertex="1" parent="1">
          <mxGeometry x="650" y="761.25" width="40" height="40" as="geometry" />
        </mxCell>
        <mxCell id="YskFfYirQ6dFapuEUr3h-565" value="" style="whiteSpace=wrap;html=1;fillColor=#f8cecc;strokeColor=#b85450;" vertex="1" parent="1">
          <mxGeometry x="660" y="771.25" width="40" height="40" as="geometry" />
        </mxCell>
        <mxCell id="YskFfYirQ6dFapuEUr3h-566" value="" style="whiteSpace=wrap;html=1;fillColor=#f8cecc;strokeColor=#b85450;" vertex="1" parent="1">
          <mxGeometry x="670" y="781.25" width="40" height="40" as="geometry" />
        </mxCell>
        <mxCell id="YskFfYirQ6dFapuEUr3h-567" value="" style="whiteSpace=wrap;html=1;fillColor=#f8cecc;strokeColor=#b85450;" vertex="1" parent="1">
          <mxGeometry x="680" y="791.25" width="40" height="40" as="geometry" />
        </mxCell>
        <mxCell id="YskFfYirQ6dFapuEUr3h-568" value="" style="whiteSpace=wrap;html=1;fillColor=#f8cecc;strokeColor=#b85450;" vertex="1" parent="1">
          <mxGeometry x="690" y="801.25" width="40" height="40" as="geometry" />
        </mxCell>
        <mxCell id="YskFfYirQ6dFapuEUr3h-569" value="" style="whiteSpace=wrap;html=1;fillColor=#f8cecc;strokeColor=#b85450;" vertex="1" parent="1">
          <mxGeometry x="700" y="811.25" width="40" height="40" as="geometry" />
        </mxCell>
        <mxCell id="YskFfYirQ6dFapuEUr3h-570" value="" style="whiteSpace=wrap;html=1;" vertex="1" parent="1">
          <mxGeometry x="590" y="841.25" width="40" height="40" as="geometry" />
        </mxCell>
        <mxCell id="YskFfYirQ6dFapuEUr3h-571" value="" style="whiteSpace=wrap;html=1;" vertex="1" parent="1">
          <mxGeometry x="600" y="851.25" width="40" height="40" as="geometry" />
        </mxCell>
        <mxCell id="YskFfYirQ6dFapuEUr3h-572" value="" style="whiteSpace=wrap;html=1;" vertex="1" parent="1">
          <mxGeometry x="610" y="861.25" width="40" height="40" as="geometry" />
        </mxCell>
        <mxCell id="YskFfYirQ6dFapuEUr3h-573" value="" style="whiteSpace=wrap;html=1;" vertex="1" parent="1">
          <mxGeometry x="620" y="871.25" width="40" height="40" as="geometry" />
        </mxCell>
        <mxCell id="YskFfYirQ6dFapuEUr3h-574" value="" style="whiteSpace=wrap;html=1;" vertex="1" parent="1">
          <mxGeometry x="630" y="881.25" width="40" height="40" as="geometry" />
        </mxCell>
        <mxCell id="YskFfYirQ6dFapuEUr3h-575" value="" style="whiteSpace=wrap;html=1;" vertex="1" parent="1">
          <mxGeometry x="640" y="891.25" width="40" height="40" as="geometry" />
        </mxCell>
        <mxCell id="YskFfYirQ6dFapuEUr3h-576" value="" style="whiteSpace=wrap;html=1;" vertex="1" parent="1">
          <mxGeometry x="590" y="1161.25" width="40" height="40" as="geometry" />
        </mxCell>
        <mxCell id="YskFfYirQ6dFapuEUr3h-577" value="" style="whiteSpace=wrap;html=1;" vertex="1" parent="1">
          <mxGeometry x="600" y="1171.25" width="40" height="40" as="geometry" />
        </mxCell>
        <mxCell id="YskFfYirQ6dFapuEUr3h-578" value="" style="whiteSpace=wrap;html=1;" vertex="1" parent="1">
          <mxGeometry x="610" y="1181.25" width="40" height="40" as="geometry" />
        </mxCell>
        <mxCell id="YskFfYirQ6dFapuEUr3h-579" value="" style="whiteSpace=wrap;html=1;" vertex="1" parent="1">
          <mxGeometry x="620" y="1191.25" width="40" height="40" as="geometry" />
        </mxCell>
        <mxCell id="YskFfYirQ6dFapuEUr3h-580" value="" style="whiteSpace=wrap;html=1;" vertex="1" parent="1">
          <mxGeometry x="630" y="1201.25" width="40" height="40" as="geometry" />
        </mxCell>
        <mxCell id="YskFfYirQ6dFapuEUr3h-581" value="" style="whiteSpace=wrap;html=1;" vertex="1" parent="1">
          <mxGeometry x="640" y="1211.25" width="40" height="40" as="geometry" />
        </mxCell>
        <mxCell id="YskFfYirQ6dFapuEUr3h-582" value="H" style="text;html=1;align=center;verticalAlign=middle;resizable=0;points=[];autosize=1;" vertex="1" parent="1">
          <mxGeometry x="733" y="818.25" width="30" height="30" as="geometry" />
        </mxCell>
        <mxCell id="YskFfYirQ6dFapuEUr3h-583" value="W" style="text;html=1;align=center;verticalAlign=middle;resizable=0;points=[];autosize=1;" vertex="1" parent="1">
          <mxGeometry x="705" y="845.25" width="30" height="30" as="geometry" />
        </mxCell>
        <mxCell id="YskFfYirQ6dFapuEUr3h-584" value="" style="whiteSpace=wrap;html=1;fillColor=#dae8fc;strokeColor=#6c8ebf;" vertex="1" parent="1">
          <mxGeometry x="650" y="901.25" width="40" height="40" as="geometry" />
        </mxCell>
        <mxCell id="YskFfYirQ6dFapuEUr3h-585" value="" style="whiteSpace=wrap;html=1;fillColor=#dae8fc;strokeColor=#6c8ebf;" vertex="1" parent="1">
          <mxGeometry x="660" y="911.25" width="40" height="40" as="geometry" />
        </mxCell>
        <mxCell id="YskFfYirQ6dFapuEUr3h-586" value="" style="whiteSpace=wrap;html=1;fillColor=#dae8fc;strokeColor=#6c8ebf;" vertex="1" parent="1">
          <mxGeometry x="670" y="921.25" width="40" height="40" as="geometry" />
        </mxCell>
        <mxCell id="YskFfYirQ6dFapuEUr3h-587" value="" style="whiteSpace=wrap;html=1;fillColor=#dae8fc;strokeColor=#6c8ebf;" vertex="1" parent="1">
          <mxGeometry x="680" y="931.25" width="40" height="40" as="geometry" />
        </mxCell>
        <mxCell id="YskFfYirQ6dFapuEUr3h-588" value="" style="whiteSpace=wrap;html=1;fillColor=#dae8fc;strokeColor=#6c8ebf;" vertex="1" parent="1">
          <mxGeometry x="690" y="941.25" width="40" height="40" as="geometry" />
        </mxCell>
        <mxCell id="YskFfYirQ6dFapuEUr3h-589" value="" style="whiteSpace=wrap;html=1;fillColor=#dae8fc;strokeColor=#6c8ebf;" vertex="1" parent="1">
          <mxGeometry x="700" y="951.25" width="40" height="40" as="geometry" />
        </mxCell>
        <mxCell id="YskFfYirQ6dFapuEUr3h-590" value="q=32" style="text;html=1;align=center;verticalAlign=middle;resizable=0;points=[];autosize=1;strokeColor=none;fillColor=none;" vertex="1" parent="1">
          <mxGeometry x="713" y="761.25" width="50" height="30" as="geometry" />
        </mxCell>
        <mxCell id="YskFfYirQ6dFapuEUr3h-591" value="" style="whiteSpace=wrap;html=1;" vertex="1" parent="1">
          <mxGeometry x="649" y="1220.25" width="40" height="40" as="geometry" />
        </mxCell>
        <mxCell id="YskFfYirQ6dFapuEUr3h-592" value="" style="whiteSpace=wrap;html=1;" vertex="1" parent="1">
          <mxGeometry x="659" y="1230.25" width="40" height="40" as="geometry" />
        </mxCell>
        <mxCell id="YskFfYirQ6dFapuEUr3h-593" value="" style="whiteSpace=wrap;html=1;" vertex="1" parent="1">
          <mxGeometry x="669" y="1240.25" width="40" height="40" as="geometry" />
        </mxCell>
        <mxCell id="YskFfYirQ6dFapuEUr3h-594" value="" style="whiteSpace=wrap;html=1;" vertex="1" parent="1">
          <mxGeometry x="679" y="1250.25" width="40" height="40" as="geometry" />
        </mxCell>
        <mxCell id="YskFfYirQ6dFapuEUr3h-595" value="" style="whiteSpace=wrap;html=1;" vertex="1" parent="1">
          <mxGeometry x="689" y="1260.25" width="40" height="40" as="geometry" />
        </mxCell>
        <mxCell id="YskFfYirQ6dFapuEUr3h-596" value="" style="whiteSpace=wrap;html=1;" vertex="1" parent="1">
          <mxGeometry x="699" y="1270.25" width="40" height="40" as="geometry" />
        </mxCell>
        <mxCell id="YskFfYirQ6dFapuEUr3h-597" value="" style="whiteSpace=wrap;html=1;" vertex="1" parent="1">
          <mxGeometry x="594.5" y="1001.25" width="40" height="40" as="geometry" />
        </mxCell>
        <mxCell id="YskFfYirQ6dFapuEUr3h-598" value="" style="whiteSpace=wrap;html=1;" vertex="1" parent="1">
          <mxGeometry x="604.5" y="1011.25" width="40" height="40" as="geometry" />
        </mxCell>
        <mxCell id="YskFfYirQ6dFapuEUr3h-599" value="" style="whiteSpace=wrap;html=1;" vertex="1" parent="1">
          <mxGeometry x="614.5" y="1021.25" width="40" height="40" as="geometry" />
        </mxCell>
        <mxCell id="YskFfYirQ6dFapuEUr3h-600" value="" style="whiteSpace=wrap;html=1;" vertex="1" parent="1">
          <mxGeometry x="624.5" y="1031.25" width="40" height="40" as="geometry" />
        </mxCell>
        <mxCell id="YskFfYirQ6dFapuEUr3h-601" value="" style="whiteSpace=wrap;html=1;" vertex="1" parent="1">
          <mxGeometry x="634.5" y="1041.25" width="40" height="40" as="geometry" />
        </mxCell>
        <mxCell id="YskFfYirQ6dFapuEUr3h-602" value="" style="whiteSpace=wrap;html=1;" vertex="1" parent="1">
          <mxGeometry x="644.5" y="1051.25" width="40" height="40" as="geometry" />
        </mxCell>
        <mxCell id="YskFfYirQ6dFapuEUr3h-603" value="" style="whiteSpace=wrap;html=1;fillColor=#d5e8d4;strokeColor=#82b366;" vertex="1" parent="1">
          <mxGeometry x="653.5" y="1060.25" width="40" height="40" as="geometry" />
        </mxCell>
        <mxCell id="YskFfYirQ6dFapuEUr3h-604" value="" style="whiteSpace=wrap;html=1;fillColor=#d5e8d4;strokeColor=#82b366;" vertex="1" parent="1">
          <mxGeometry x="663.5" y="1070.25" width="40" height="40" as="geometry" />
        </mxCell>
        <mxCell id="YskFfYirQ6dFapuEUr3h-605" value="" style="whiteSpace=wrap;html=1;fillColor=#d5e8d4;strokeColor=#82b366;" vertex="1" parent="1">
          <mxGeometry x="673.5" y="1080.25" width="40" height="40" as="geometry" />
        </mxCell>
        <mxCell id="YskFfYirQ6dFapuEUr3h-606" value="" style="whiteSpace=wrap;html=1;fillColor=#d5e8d4;strokeColor=#82b366;" vertex="1" parent="1">
          <mxGeometry x="683.5" y="1090.25" width="40" height="40" as="geometry" />
        </mxCell>
        <mxCell id="YskFfYirQ6dFapuEUr3h-607" value="" style="whiteSpace=wrap;html=1;fillColor=#d5e8d4;strokeColor=#82b366;" vertex="1" parent="1">
          <mxGeometry x="693.5" y="1100.25" width="40" height="40" as="geometry" />
        </mxCell>
        <mxCell id="YskFfYirQ6dFapuEUr3h-608" value="" style="whiteSpace=wrap;html=1;fillColor=#d5e8d4;strokeColor=#82b366;" vertex="1" parent="1">
          <mxGeometry x="703.5" y="1110.25" width="40" height="40" as="geometry" />
        </mxCell>
        <mxCell id="YskFfYirQ6dFapuEUr3h-609" value="" style="endArrow=none;html=1;rounded=0;" edge="1" parent="1">
          <mxGeometry width="50" height="50" relative="1" as="geometry">
            <mxPoint x="570" y="1041.25" as="sourcePoint" />
            <mxPoint x="570" y="701.25" as="targetPoint" />
          </mxGeometry>
        </mxCell>
        <mxCell id="YskFfYirQ6dFapuEUr3h-610" value="p=32" style="text;html=1;align=center;verticalAlign=middle;resizable=0;points=[];autosize=1;strokeColor=none;fillColor=none;" vertex="1" parent="1">
          <mxGeometry x="520" y="848.25" width="50" height="30" as="geometry" />
        </mxCell>
        <mxCell id="YskFfYirQ6dFapuEUr3h-611" value="" style="rounded=0;whiteSpace=wrap;html=1;" vertex="1" parent="1">
          <mxGeometry x="930" y="591.25" width="160" height="300" as="geometry" />
        </mxCell>
        <mxCell id="YskFfYirQ6dFapuEUr3h-612" value="" style="endArrow=none;html=1;rounded=0;entryX=0.997;entryY=0.387;entryDx=0;entryDy=0;exitX=0;exitY=0.387;exitDx=0;exitDy=0;exitPerimeter=0;entryPerimeter=0;" edge="1" parent="1">
          <mxGeometry width="50" height="50" relative="1" as="geometry">
            <mxPoint x="930" y="691.2500000000001" as="sourcePoint" />
            <mxPoint x="1089.52" y="691.2500000000001" as="targetPoint" />
          </mxGeometry>
        </mxCell>
        <mxCell id="YskFfYirQ6dFapuEUr3h-613" value="" style="endArrow=none;html=1;rounded=0;entryX=0.997;entryY=0.387;entryDx=0;entryDy=0;exitX=0;exitY=0.387;exitDx=0;exitDy=0;exitPerimeter=0;entryPerimeter=0;" edge="1" parent="1">
          <mxGeometry width="50" height="50" relative="1" as="geometry">
            <mxPoint x="930" y="651.25" as="sourcePoint" />
            <mxPoint x="1090" y="651.25" as="targetPoint" />
          </mxGeometry>
        </mxCell>
        <mxCell id="YskFfYirQ6dFapuEUr3h-614" value="" style="endArrow=none;html=1;rounded=0;entryX=0.997;entryY=0.387;entryDx=0;entryDy=0;exitX=0;exitY=0.387;exitDx=0;exitDy=0;exitPerimeter=0;entryPerimeter=0;" edge="1" parent="1">
          <mxGeometry width="50" height="50" relative="1" as="geometry">
            <mxPoint x="930" y="740.96" as="sourcePoint" />
            <mxPoint x="1090" y="740.96" as="targetPoint" />
          </mxGeometry>
        </mxCell>
        <mxCell id="YskFfYirQ6dFapuEUr3h-615" value="" style="endArrow=none;html=1;rounded=0;entryX=0.997;entryY=0.387;entryDx=0;entryDy=0;exitX=0;exitY=0.387;exitDx=0;exitDy=0;exitPerimeter=0;entryPerimeter=0;" edge="1" parent="1">
          <mxGeometry width="50" height="50" relative="1" as="geometry">
            <mxPoint x="930" y="871.25" as="sourcePoint" />
            <mxPoint x="1090" y="871.25" as="targetPoint" />
          </mxGeometry>
        </mxCell>
        <mxCell id="YskFfYirQ6dFapuEUr3h-616" value="ifmap" style="text;html=1;align=center;verticalAlign=middle;resizable=0;points=[];autosize=1;strokeColor=#6c8ebf;fillColor=#dae8fc;" vertex="1" parent="1">
          <mxGeometry x="985" y="601.25" width="50" height="30" as="geometry" />
        </mxCell>
        <mxCell id="YskFfYirQ6dFapuEUr3h-617" value="weight" style="text;html=1;align=center;verticalAlign=middle;resizable=0;points=[];autosize=1;strokeColor=#6c8ebf;fillColor=#dae8fc;" vertex="1" parent="1">
          <mxGeometry x="980" y="656.25" width="60" height="30" as="geometry" />
        </mxCell>
        <mxCell id="YskFfYirQ6dFapuEUr3h-618" value="bias" style="text;html=1;align=center;verticalAlign=middle;resizable=0;points=[];autosize=1;strokeColor=#6c8ebf;fillColor=#dae8fc;" vertex="1" parent="1">
          <mxGeometry x="985" y="701.25" width="50" height="30" as="geometry" />
        </mxCell>
        <mxCell id="YskFfYirQ6dFapuEUr3h-619" value="opsum" style="text;html=1;align=center;verticalAlign=middle;resizable=0;points=[];autosize=1;strokeColor=#6c8ebf;fillColor=#dae8fc;" vertex="1" parent="1">
          <mxGeometry x="980" y="791.25" width="60" height="30" as="geometry" />
        </mxCell>
        <mxCell id="YskFfYirQ6dFapuEUr3h-620" value="" style="endArrow=classic;html=1;rounded=0;exitX=0.994;exitY=0.197;exitDx=0;exitDy=0;exitPerimeter=0;" edge="1" parent="1" source="YskFfYirQ6dFapuEUr3h-611">
          <mxGeometry width="50" height="50" relative="1" as="geometry">
            <mxPoint x="950" y="700" as="sourcePoint" />
            <mxPoint x="1200" y="520" as="targetPoint" />
          </mxGeometry>
        </mxCell>
        <mxCell id="YskFfYirQ6dFapuEUr3h-621" value="&lt;font style=&quot;font-size: 14px;&quot;&gt;&lt;b&gt;filter_base =&amp;nbsp;&lt;span class=&quot;notion-enable-hover&quot; data-token-index=&quot;0&quot; style=&quot;&quot;&gt;tile_R *&amp;nbsp;&lt;span style=&quot;&quot; class=&quot;notion-enable-hover&quot; data-token-index=&quot;0&quot;&gt;tile_D&lt;/span&gt;&amp;nbsp;- 1&lt;/span&gt;&lt;/b&gt;&lt;/font&gt;" style="text;html=1;align=center;verticalAlign=middle;resizable=0;points=[];autosize=1;strokeColor=none;fillColor=none;" vertex="1" parent="1">
          <mxGeometry x="1160" y="484.75" width="220" height="30" as="geometry" />
        </mxCell>
        <mxCell id="YskFfYirQ6dFapuEUr3h-622" value="0" style="text;html=1;align=center;verticalAlign=middle;resizable=0;points=[];autosize=1;strokeColor=none;fillColor=none;" vertex="1" parent="1">
          <mxGeometry x="1080" y="574.25" width="30" height="30" as="geometry" />
        </mxCell>
        <mxCell id="YskFfYirQ6dFapuEUr3h-623" value="" style="endArrow=classic;html=1;rounded=0;exitX=0.988;exitY=0.33;exitDx=0;exitDy=0;exitPerimeter=0;" edge="1" parent="1" source="YskFfYirQ6dFapuEUr3h-611">
          <mxGeometry width="50" height="50" relative="1" as="geometry">
            <mxPoint x="1160" y="720" as="sourcePoint" />
            <mxPoint x="1250" y="600" as="targetPoint" />
          </mxGeometry>
        </mxCell>
        <mxCell id="YskFfYirQ6dFapuEUr3h-624" value="&lt;font style=&quot;font-size: 14px;&quot;&gt;&lt;b&gt;bias_base =&amp;nbsp;&lt;/b&gt;&lt;/font&gt;&lt;b style=&quot;font-size: 14px;&quot;&gt;filter_base + 1*1*32*32&lt;/b&gt;" style="text;html=1;align=center;verticalAlign=middle;resizable=0;points=[];autosize=1;strokeColor=none;fillColor=none;" vertex="1" parent="1">
          <mxGeometry x="1240" y="587.25" width="260" height="30" as="geometry" />
        </mxCell>
        <mxCell id="YskFfYirQ6dFapuEUr3h-625" value="&lt;font style=&quot;font-size: 14px;&quot;&gt;&lt;b&gt;opsum_base = bias_base&lt;/b&gt;&lt;/font&gt;&lt;b style=&quot;font-size: 14px;&quot;&gt;&amp;nbsp;+ 32*32(假設32bits)&lt;/b&gt;" style="text;html=1;align=center;verticalAlign=middle;resizable=0;points=[];autosize=1;strokeColor=none;fillColor=none;" vertex="1" parent="1">
          <mxGeometry x="1230" y="672.25" width="320" height="30" as="geometry" />
        </mxCell>
        <mxCell id="YskFfYirQ6dFapuEUr3h-626" value="" style="endArrow=classic;html=1;rounded=0;exitX=0.982;exitY=0.489;exitDx=0;exitDy=0;exitPerimeter=0;entryX=-0.003;entryY=0.602;entryDx=0;entryDy=0;entryPerimeter=0;" edge="1" parent="1" source="YskFfYirQ6dFapuEUr3h-611" target="YskFfYirQ6dFapuEUr3h-625">
          <mxGeometry width="50" height="50" relative="1" as="geometry">
            <mxPoint x="1230" y="720" as="sourcePoint" />
            <mxPoint x="1392" y="630" as="targetPoint" />
          </mxGeometry>
        </mxCell>
        <mxCell id="YskFfYirQ6dFapuEUr3h-627" value="" style="shape=flexArrow;endArrow=classic;html=1;rounded=0;" edge="1" parent="1">
          <mxGeometry width="50" height="50" relative="1" as="geometry">
            <mxPoint x="180.5" y="1561.25" as="sourcePoint" />
            <mxPoint x="180" y="1770" as="targetPoint" />
          </mxGeometry>
        </mxCell>
        <mxCell id="YskFfYirQ6dFapuEUr3h-628" value="&lt;font style=&quot;font-size: 18px;&quot;&gt;每次取值後，會+上(tile_R * C)才能配合上圖&lt;/font&gt;&lt;div&gt;&lt;font style=&quot;font-size: 18px;&quot;&gt;使其能跳過第一CHANNEL取第二CHANNEL資訊&lt;/font&gt;&lt;/div&gt;&lt;div&gt;&lt;font style=&quot;font-size: 18px;&quot;&gt;CHANNEL方向取完後要回到第一張並開始取[4~7]&lt;/font&gt;&lt;/div&gt;&lt;div&gt;&lt;font style=&quot;font-size: 18px;&quot;&gt;並且從4 +&amp;nbsp;&lt;span style=&quot;background-color: transparent; color: light-dark(rgb(0, 0, 0), rgb(255, 255, 255));&quot;&gt;(tile_R * C) 即可取第二 CHANNEL的4~7&lt;/span&gt;&lt;/font&gt;&lt;/div&gt;" style="rounded=0;whiteSpace=wrap;html=1;" vertex="1" parent="1">
          <mxGeometry x="60" y="1790" width="500" height="130" as="geometry" />
        </mxCell>
      </root>
    </mxGraphModel>
  </diagram>
</mxfile>
